<svg width="24" height="24" viewBox="0 0 24 24" fill="none" xmlns="http://www.w3.org/2000/svg">
<path d="M12.0005 15.8252C14.1128 15.8252 15.8252 14.1128 15.8252 12.0005C15.8252 9.88816 14.1128 8.17578 12.0005 8.17578C9.88816 8.17578 8.17578 9.88816 8.17578 12.0005C8.17578 14.1128 9.88816 15.8252 12.0005 15.8252Z" stroke="white" stroke-width="1.2" stroke-linecap="round" stroke-linejoin="round"/>
<path d="M16.4383 6.98805C16.6401 7.17397 16.8314 7.36521 17.012 7.56176L19.1873 7.87251C19.5417 8.48806 19.8149 9.14693 20 9.83267L18.6773 11.5936C18.6773 11.5936 18.7012 12.1355 18.6773 12.4064L20 14.1673C19.8157 14.8534 19.5425 15.5124 19.1873 16.1275L17.012 16.4383C17.012 16.4383 16.6375 16.8287 16.4383 17.012L16.1275 19.1873C15.512 19.5417 14.8531 19.8149 14.1673 20L12.4064 18.6773C12.136 18.7012 11.864 18.7012 11.5936 18.6773L9.83267 20C9.14664 19.8157 8.48766 19.5425 7.87251 19.1873L7.56176 17.012C7.36521 16.826 7.17397 16.6348 6.98805 16.4383L4.81275 16.1275C4.45831 15.512 4.18512 14.8531 4 14.1673L5.32271 12.4064C5.32271 12.4064 5.29881 11.8645 5.32271 11.5936L4 9.83267C4.18426 9.14664 4.4575 8.48766 4.81275 7.87251L6.98805 7.56176C7.17397 7.36521 7.36521 7.17397 7.56176 6.98805L7.87251 4.81275C8.48806 4.45831 9.14693 4.18512 9.83267 4L11.5936 5.32271C11.864 5.2988 12.136 5.2988 12.4064 5.32271L14.1673 4C14.8534 4.18426 15.5124 4.4575 16.1275 4.81275L16.4383 6.98805Z" stroke="white" stroke-width="1.2" stroke-linecap="round" stroke-linejoin="round"/>
</svg>
