<svg width="17" height="16" viewBox="0 0 17 16" fill="none" xmlns="http://www.w3.org/2000/svg">
<path d="M9.86673 1.3291C9.98829 1.3291 10.1049 1.37739 10.1908 1.46334L14.7281 6.00061C14.9071 6.1796 14.9071 6.4698 14.7281 6.64879C14.2877 7.08916 13.7454 7.18815 13.3507 7.18815C13.1881 7.18815 13.0432 7.17164 12.9284 7.15216L10.056 10.0246C10.0623 10.0501 10.0688 10.0772 10.0753 10.1057C10.1247 10.3197 10.1802 10.6183 10.2025 10.953C10.2455 11.597 10.1735 12.4998 9.54264 13.1306C9.36365 13.3096 9.07345 13.3096 8.89446 13.1306L6.30174 10.5379L3.38492 13.4547C3.20593 13.6337 2.26755 14.2819 2.08856 14.1029C1.90957 13.9239 2.55775 12.9855 2.73674 12.8065L5.65356 9.8897L3.06083 7.29698C2.88184 7.11799 2.88184 6.82778 3.06083 6.64879C3.69165 6.01797 4.59444 5.94599 5.23842 5.98892C5.57318 6.01124 5.87171 6.06671 6.08577 6.11611C6.11424 6.12268 6.14131 6.12917 6.16687 6.13548L9.03928 3.26307C9.0198 3.14827 9.00329 3.00333 9.00329 2.84073C9.00329 2.44599 9.10228 1.9037 9.54264 1.46334C9.6286 1.37739 9.74518 1.3291 9.86673 1.3291ZM9.97827 3.2654L9.97757 3.26328L9.97827 3.2654ZM9.97757 3.26328L9.97827 3.2654C10.0319 3.42944 9.98888 3.60984 9.86673 3.73198L6.62583 6.97289C6.50318 7.09553 6.32181 7.13843 6.15723 7.08375L6.15539 7.08315L6.14336 7.07935C6.13192 7.07579 6.1138 7.07027 6.0897 7.06335C6.04143 7.04948 5.96956 7.03005 5.87965 7.0093C5.69873 6.96755 5.45036 6.92175 5.17744 6.90356C4.79082 6.87778 4.4114 6.91069 4.10067 7.04045L9.15099 12.0908C9.28075 11.78 9.31366 11.4006 9.28788 11.014C9.26969 10.7411 9.22389 10.4927 9.18213 10.3118C9.16139 10.2219 9.14196 10.15 9.12809 10.1017C9.12116 10.0776 9.11565 10.0595 9.11209 10.0481L9.10828 10.0361L9.10783 10.0346C9.05305 9.87001 9.09585 9.68831 9.21855 9.56561L12.4595 6.3247C12.5821 6.20211 12.7633 6.15919 12.9278 6.21377C12.9311 6.21476 12.9378 6.21671 12.9472 6.21927C12.9661 6.22442 12.9963 6.23203 13.0355 6.23987C13.1148 6.25574 13.2257 6.27148 13.3507 6.27148C13.4548 6.27148 13.5613 6.26085 13.6651 6.23394L9.9575 2.52638C9.93058 2.63016 9.91995 2.73667 9.91995 2.84073C9.91995 2.96569 9.9357 3.07664 9.95157 3.15596C9.95941 3.19516 9.96702 3.22538 9.97217 3.24425C9.97473 3.25365 9.97658 3.26004 9.97757 3.26328Z" fill="#A0A0A0"/>
</svg>
