<svg width="16" height="16" viewBox="0 0 16 16" fill="none" xmlns="http://www.w3.org/2000/svg">
<path d="M9.69091 1.17188C9.82352 1.17188 9.9507 1.22455 10.0445 1.31832L14.9942 6.26807C15.1895 6.46333 15.1895 6.77991 14.9942 6.97518C14.5138 7.45557 13.9222 7.56356 13.4916 7.56356C13.3142 7.56356 13.1561 7.54555 13.0309 7.5243L9.89734 10.6578C9.90423 10.6857 9.9113 10.7153 9.91847 10.7463C9.97236 10.9798 10.0329 11.3055 10.0572 11.6707C10.1041 12.3732 10.0255 13.3581 9.33736 14.0462C9.1421 14.2415 8.82551 14.2415 8.63025 14.0462L5.80183 11.2178L2.61985 14.3998C2.42458 14.5951 1.40089 15.3022 1.20563 15.1069C1.01037 14.9116 1.71748 13.8879 1.91274 13.6927L5.09472 10.5107L2.26629 7.68228C2.07103 7.48702 2.07103 7.17044 2.26629 6.97518C2.95446 6.28701 3.93932 6.20848 4.64184 6.25531C5.00703 6.27966 5.33271 6.34018 5.56623 6.39407C5.59728 6.40123 5.62681 6.40831 5.6547 6.4152L8.78823 3.28166C8.76698 3.15642 8.74897 2.99831 8.74897 2.82092C8.74897 2.3903 8.85697 1.79871 9.33736 1.31832C9.43113 1.22455 9.5583 1.17188 9.69091 1.17188ZM9.81258 3.28421L9.81182 3.28189L9.81258 3.28421ZM9.81182 3.28189L9.81258 3.28421C9.87111 3.46315 9.82416 3.65995 9.69091 3.7932L6.15538 7.32873C6.02158 7.46253 5.82373 7.50932 5.64419 7.44967L5.64217 7.44902L5.62905 7.44487C5.61657 7.44099 5.59681 7.43497 5.57051 7.42742C5.51785 7.41228 5.43945 7.39109 5.34137 7.36846C5.14399 7.32291 4.87305 7.27295 4.57532 7.2531C4.15355 7.22498 3.73964 7.26087 3.40066 7.40244L8.9101 12.9119C9.05166 12.5729 9.08755 12.159 9.05944 11.7372C9.03959 11.4395 8.98962 11.1685 8.94408 10.9712C8.92144 10.8731 8.90025 10.7947 8.88512 10.742C8.87756 10.7157 8.87155 10.696 8.86766 10.6835L8.86351 10.6704L8.86302 10.6688C8.80326 10.4892 8.84995 10.291 8.98381 10.1572L12.5193 6.62162C12.6531 6.48788 12.8508 6.44106 13.0303 6.5006C13.0338 6.50168 13.0412 6.50381 13.0514 6.5066C13.072 6.51222 13.105 6.52053 13.1477 6.52908C13.2343 6.54639 13.3553 6.56356 13.4916 6.56356C13.6051 6.56356 13.7213 6.55197 13.8345 6.52261L9.78993 2.478C9.76057 2.59122 9.74897 2.7074 9.74897 2.82092C9.74897 2.95725 9.76615 3.07828 9.78346 3.16481C9.79201 3.20758 9.80032 3.24055 9.80593 3.26113C9.80873 3.27138 9.81074 3.27835 9.81182 3.28189Z" fill="white"/>
<path d="M5.36328 10.4502L2.86328 7.4502L5.86328 6.9502L9.36328 3.4502L9.86328 1.9502L14.8633 6.4502L12.8633 6.9502L9.36328 10.4502L8.86328 13.4502L5.36328 10.4502Z" fill="white"/>
</svg>
