<svg width="56" height="56" viewBox="0 0 56 56" fill="none" xmlns="http://www.w3.org/2000/svg">
<g filter="url(#filter0_i_6961_60087)">
<path d="M12 27.5918C12 25.3827 13.7909 23.5918 16 23.5918H39C41.2091 23.5918 43 25.3827 43 27.5918V39.7981C43 41.1857 42.2809 42.4741 41.1 43.2025L35.9001 46.4101C30.7505 49.5867 24.2495 49.5867 19.0999 46.4101L13.9 43.2025C12.7191 42.4741 12 41.1857 12 39.7981V27.5918Z" fill="#308AF2"/>
</g>
<path d="M16 23.3918C13.6804 23.3918 11.8 25.2722 11.8 27.5918V39.7981C11.8 41.255 12.555 42.6079 13.795 43.3727L18.9949 46.5804C24.2089 49.7966 30.7911 49.7966 36.0051 46.5804L41.205 43.3727C42.445 42.6079 43.2 41.255 43.2 39.7981V27.5918C43.2 25.2722 41.3196 23.3918 39 23.3918H16Z" stroke="url(#paint0_linear_6961_60087)" stroke-width="0.4"/>
<g filter="url(#filter1_bi_6961_60087)">
<path fill-rule="evenodd" clip-rule="evenodd" d="M6.34103 16.7555C2.7457 18.5851 2.7457 23.4148 6.34103 25.2444L25.0336 34.7565C26.5717 35.5392 28.4287 35.5392 29.9668 34.7565L46.9011 26.1391V29.1894L45.1356 32.2473C44.7507 32.914 45.2318 33.7473 46.0016 33.7473H49.9365C50.7063 33.7473 51.1874 32.914 50.8025 32.2473L49.1011 29.3004V24.9935C52.2481 23.007 52.1009 18.5068 48.6594 16.7555L29.9668 7.2434C28.4287 6.46074 26.5716 6.46074 25.0336 7.2434L6.34103 16.7555Z" fill="#C9DBFA" fill-opacity="0.75"/>
<path d="M6.34103 25.2444L6.25033 25.4226L6.34103 25.2444ZM6.34103 16.7555L6.43174 16.9338L6.34103 16.7555ZM25.0336 34.7565L24.9429 34.9348L25.0336 34.7565ZM29.9668 34.7565L30.0575 34.9348L29.9668 34.7565ZM46.9011 26.1391H47.1011V25.8129L46.8104 25.9609L46.9011 26.1391ZM46.9011 29.1894L47.0743 29.2894L47.1011 29.243V29.1894H46.9011ZM45.1356 32.2473L45.3088 32.3473L45.1356 32.2473ZM50.8025 32.2473L50.6293 32.3473L50.8025 32.2473ZM49.1011 29.3004H48.9011V29.354L48.9279 29.4004L49.1011 29.3004ZM49.1011 24.9935L48.9943 24.8244L48.9011 24.8833V24.9935H49.1011ZM48.6594 16.7555L48.7501 16.5773L48.6594 16.7555ZM29.9668 7.2434L29.8761 7.42165L29.9668 7.2434ZM25.0336 7.2434L24.9429 7.06515L25.0336 7.2434ZM6.43174 25.0661C2.98213 23.3107 2.98213 18.6892 6.43174 16.9338L6.25033 16.5773C2.50927 18.481 2.50926 23.5189 6.25033 25.4226L6.43174 25.0661ZM25.1243 34.5783L6.43174 25.0661L6.25033 25.4226L24.9429 34.9348L25.1243 34.5783ZM29.8761 34.5783C28.395 35.3319 26.6054 35.3319 25.1243 34.5783L24.9429 34.9348C26.5379 35.7464 28.4624 35.7464 30.0575 34.9348L29.8761 34.5783ZM46.8104 25.9609L29.8761 34.5783L30.0575 34.9348L46.9918 26.3174L46.8104 25.9609ZM46.7011 26.1391V29.1894H47.1011V26.1391H46.7011ZM46.7279 29.0894L44.9624 32.1473L45.3088 32.3473L47.0743 29.2894L46.7279 29.0894ZM44.9624 32.1473C44.5005 32.9473 45.0779 33.9473 46.0016 33.9473V33.5473C45.3858 33.5473 45.0009 32.8807 45.3088 32.3473L44.9624 32.1473ZM46.0016 33.9473H49.9365V33.5473H46.0016V33.9473ZM49.9365 33.9473C50.8602 33.9473 51.4376 32.9473 50.9757 32.1473L50.6293 32.3473C50.9372 32.8807 50.5523 33.5473 49.9365 33.5473V33.9473ZM50.9757 32.1473L49.2743 29.2004L48.9279 29.4004L50.6293 32.3473L50.9757 32.1473ZM49.3011 29.3004V24.9935H48.9011V29.3004H49.3011ZM48.5686 16.9338C51.8719 18.6147 52.0101 22.9207 48.9943 24.8244L49.2079 25.1627C52.4861 23.0933 52.3298 18.3989 48.7501 16.5773L48.5686 16.9338ZM29.8761 7.42165L48.5686 16.9338L48.7501 16.5773L30.0575 7.06515L29.8761 7.42165ZM25.1243 7.42164C26.6054 6.66799 28.395 6.66799 29.8761 7.42165L30.0575 7.06515C28.4624 6.25349 26.5379 6.25349 24.9429 7.06515L25.1243 7.42164ZM6.43174 16.9338L25.1243 7.42164L24.9429 7.06515L6.25033 16.5773L6.43174 16.9338Z" fill="url(#paint1_linear_6961_60087)"/>
</g>
<defs>
<filter id="filter0_i_6961_60087" x="11.5996" y="23.1918" width="31.8008" height="27.0008" filterUnits="userSpaceOnUse" color-interpolation-filters="sRGB">
<feFlood flood-opacity="0" result="BackgroundImageFix"/>
<feBlend mode="normal" in="SourceGraphic" in2="BackgroundImageFix" result="shape"/>
<feColorMatrix in="SourceAlpha" type="matrix" values="0 0 0 0 0 0 0 0 0 0 0 0 0 0 0 0 0 0 127 0" result="hardAlpha"/>
<feOffset dy="1"/>
<feGaussianBlur stdDeviation="0.5"/>
<feComposite in2="hardAlpha" operator="arithmetic" k2="-1" k3="1"/>
<feColorMatrix type="matrix" values="0 0 0 0 1 0 0 0 0 1 0 0 0 0 1 0 0 0 0.4 0"/>
<feBlend mode="normal" in2="shape" result="effect1_innerShadow_6961_60087"/>
</filter>
<filter id="filter1_bi_6961_60087" x="-0.555664" y="2.45639" width="56.1113" height="37.0871" filterUnits="userSpaceOnUse" color-interpolation-filters="sRGB">
<feFlood flood-opacity="0" result="BackgroundImageFix"/>
<feGaussianBlur in="BackgroundImageFix" stdDeviation="2"/>
<feComposite in2="SourceAlpha" operator="in" result="effect1_backgroundBlur_6961_60087"/>
<feBlend mode="normal" in="SourceGraphic" in2="effect1_backgroundBlur_6961_60087" result="shape"/>
<feColorMatrix in="SourceAlpha" type="matrix" values="0 0 0 0 0 0 0 0 0 0 0 0 0 0 0 0 0 0 127 0" result="hardAlpha"/>
<feOffset dy="2"/>
<feGaussianBlur stdDeviation="1"/>
<feComposite in2="hardAlpha" operator="arithmetic" k2="-1" k3="1"/>
<feColorMatrix type="matrix" values="0 0 0 0 1 0 0 0 0 1 0 0 0 0 1 0 0 0 0.4 0"/>
<feBlend mode="normal" in2="shape" result="effect2_innerShadow_6961_60087"/>
</filter>
<linearGradient id="paint0_linear_6961_60087" x1="27.5" y1="23.5918" x2="27.5" y2="51.5918" gradientUnits="userSpaceOnUse">
<stop stop-color="white" stop-opacity="0.5"/>
<stop offset="1" stop-color="white"/>
</linearGradient>
<linearGradient id="paint1_linear_6961_60087" x1="27.7782" y1="7.48502" x2="27.7782" y2="35.2077" gradientUnits="userSpaceOnUse">
<stop stop-color="white" stop-opacity="0.5"/>
<stop offset="1" stop-color="white"/>
</linearGradient>
</defs>
</svg>
