<svg width="88" height="112" viewBox="0 0 88 112" fill="none" xmlns="http://www.w3.org/2000/svg">
<g clip-path="url(#clip0_1057_17446)">
<g filter="url(#filter0_ii_1057_17446)">
<path fill-rule="evenodd" clip-rule="evenodd" d="M0 12C0 5.37257 5.37258 0 12 0H76C82.6274 0 88 5.37258 88 12V82.2435C88 86.7575 85.4669 90.8896 81.4442 92.9375L49.4442 109.228C46.0236 110.97 41.9764 110.97 38.5558 109.228L6.55581 92.9375C2.53313 90.8896 0 86.7575 0 82.2435L0 12Z" fill="white"/>
<path fill-rule="evenodd" clip-rule="evenodd" d="M0 12C0 5.37257 5.37258 0 12 0H76C82.6274 0 88 5.37258 88 12V82.2435C88 86.7575 85.4669 90.8896 81.4442 92.9375L49.4442 109.228C46.0236 110.97 41.9764 110.97 38.5558 109.228L6.55581 92.9375C2.53313 90.8896 0 86.7575 0 82.2435L0 12Z" fill="url(#paint0_linear_1057_17446)" fill-opacity="0.25"/>
</g>
<g filter="url(#filter1_di_1057_17446)">
<path fill-rule="evenodd" clip-rule="evenodd" d="M8 14C8 10.6863 10.6863 8 14 8H74C77.3137 8 80 10.6863 80 14V79.5644C80 81.799 78.7582 83.8485 76.7774 84.8829L46.7774 100.55C45.0373 101.458 42.9627 101.458 41.2226 100.55L11.2226 84.8829C9.24182 83.8485 8 81.799 8 79.5645L8 14Z" fill="url(#paint1_linear_1057_17446)"/>
</g>
<g filter="url(#filter2_di_1057_17446)">
<path d="M42.1719 18.1202C42.8752 16.5351 45.1248 16.5351 45.8281 18.1202L47.2187 21.2543C47.5132 21.918 48.1443 22.37 48.8675 22.4351L52.2609 22.7406C54.0256 22.8994 54.7275 25.1048 53.3792 26.2544L50.9057 28.3634C50.337 28.8483 50.0861 29.6098 50.2552 30.3377L50.9933 33.5165C51.3889 35.22 49.5617 36.5749 48.0465 35.7017L44.9987 33.9452C44.3805 33.5889 43.6195 33.5889 43.0013 33.9452L39.9535 35.7017C38.4383 36.5749 36.6111 35.22 37.0067 33.5165L37.7448 30.3377C37.9139 29.6098 37.663 28.8483 37.0943 28.3634L34.6208 26.2544C33.2725 25.1048 33.9744 22.8994 35.7391 22.7406L39.1325 22.4351C39.8557 22.37 40.4868 21.918 40.7813 21.2543L42.1719 18.1202Z" fill="#B6FFC9"/>
</g>
<g filter="url(#filter3_di_1057_17446)">
<path d="M30.072 60.864C29.9973 58.624 30.2587 56.552 30.856 54.648C31.4533 52.7067 32.3493 51.0267 33.544 49.608C34.7387 48.152 36.232 47.032 38.024 46.248C39.8533 45.4267 41.944 45.016 44.296 45.016C46.088 45.016 47.7867 45.296 49.392 45.856C51.0347 46.416 52.472 47.2187 53.704 48.264C54.936 49.3093 55.9067 50.5973 56.616 52.128C57.3627 53.6587 57.736 55.376 57.736 57.28C57.736 59.2587 57.4187 60.9573 56.784 62.376C56.1493 63.7947 55.3093 65.064 54.264 66.184C53.2187 67.2667 52.024 68.256 50.68 69.152C49.3733 70.048 48.048 70.944 46.704 71.84C45.36 72.6987 44.0533 73.632 42.784 74.64C41.5147 75.648 40.3947 76.824 39.424 78.168H57.96V85H29.176C29.176 82.7227 29.4933 80.744 30.128 79.064C30.8 77.384 31.696 75.8907 32.816 74.584C33.936 73.24 35.2427 72.008 36.736 70.888C38.2667 69.768 39.872 68.6293 41.552 67.472C42.4107 66.8747 43.3253 66.2773 44.296 65.68C45.2667 65.0453 46.144 64.3547 46.928 63.608C47.7493 62.8613 48.4213 62.0213 48.944 61.088C49.504 60.1547 49.784 59.0907 49.784 57.896C49.784 55.992 49.224 54.5173 48.104 53.472C47.0213 52.3893 45.6213 51.848 43.904 51.848C42.7467 51.848 41.7573 52.128 40.936 52.688C40.152 53.2107 39.5173 53.92 39.032 54.816C38.5467 55.6747 38.192 56.6453 37.968 57.728C37.7813 58.7733 37.688 59.8187 37.688 60.864H30.072Z" fill="#BBFFE9"/>
</g>
</g>
<defs>
<filter id="filter0_ii_1057_17446" x="0" y="0" width="89" height="111.535" filterUnits="userSpaceOnUse" color-interpolation-filters="sRGB">
<feFlood flood-opacity="0" result="BackgroundImageFix"/>
<feBlend mode="normal" in="SourceGraphic" in2="BackgroundImageFix" result="shape"/>
<feColorMatrix in="SourceAlpha" type="matrix" values="0 0 0 0 0 0 0 0 0 0 0 0 0 0 0 0 0 0 127 0" result="hardAlpha"/>
<feOffset/>
<feGaussianBlur stdDeviation="3"/>
<feComposite in2="hardAlpha" operator="arithmetic" k2="-1" k3="1"/>
<feColorMatrix type="matrix" values="0 0 0 0 0.156644 0 0 0 0 0.601888 0 0 0 0 0.408949 0 0 0 0.2 0"/>
<feBlend mode="normal" in2="shape" result="effect1_innerShadow_1057_17446"/>
<feColorMatrix in="SourceAlpha" type="matrix" values="0 0 0 0 0 0 0 0 0 0 0 0 0 0 0 0 0 0 127 0" result="hardAlpha"/>
<feOffset dx="1" dy="1"/>
<feGaussianBlur stdDeviation="3"/>
<feComposite in2="hardAlpha" operator="arithmetic" k2="-1" k3="1"/>
<feColorMatrix type="matrix" values="0 0 0 0 0 0 0 0 0 0 0 0 0 0 0 0 0 0 0.05 0"/>
<feBlend mode="normal" in2="effect1_innerShadow_1057_17446" result="effect2_innerShadow_1057_17446"/>
</filter>
<filter id="filter1_di_1057_17446" x="4" y="4" width="84" height="105.23" filterUnits="userSpaceOnUse" color-interpolation-filters="sRGB">
<feFlood flood-opacity="0" result="BackgroundImageFix"/>
<feColorMatrix in="SourceAlpha" type="matrix" values="0 0 0 0 0 0 0 0 0 0 0 0 0 0 0 0 0 0 127 0" result="hardAlpha"/>
<feOffset dx="2" dy="2"/>
<feGaussianBlur stdDeviation="3"/>
<feComposite in2="hardAlpha" operator="out"/>
<feColorMatrix type="matrix" values="0 0 0 0 0.00265818 0 0 0 0 0.573047 0 0 0 0 0.431491 0 0 0 0.8 0"/>
<feBlend mode="normal" in2="BackgroundImageFix" result="effect1_dropShadow_1057_17446"/>
<feBlend mode="normal" in="SourceGraphic" in2="effect1_dropShadow_1057_17446" result="shape"/>
<feColorMatrix in="SourceAlpha" type="matrix" values="0 0 0 0 0 0 0 0 0 0 0 0 0 0 0 0 0 0 127 0" result="hardAlpha"/>
<feOffset dx="1" dy="1"/>
<feGaussianBlur stdDeviation="4"/>
<feComposite in2="hardAlpha" operator="arithmetic" k2="-1" k3="1"/>
<feColorMatrix type="matrix" values="0 0 0 0 1 0 0 0 0 1 0 0 0 0 1 0 0 0 0.6 0"/>
<feBlend mode="normal" in2="shape" result="effect2_innerShadow_1057_17446"/>
</filter>
<filter id="filter2_di_1057_17446" x="25.916" y="8.93164" width="36.168" height="35.043" filterUnits="userSpaceOnUse" color-interpolation-filters="sRGB">
<feFlood flood-opacity="0" result="BackgroundImageFix"/>
<feColorMatrix in="SourceAlpha" type="matrix" values="0 0 0 0 0 0 0 0 0 0 0 0 0 0 0 0 0 0 127 0" result="hardAlpha"/>
<feOffset/>
<feGaussianBlur stdDeviation="4"/>
<feComposite in2="hardAlpha" operator="out"/>
<feColorMatrix type="matrix" values="0 0 0 0 0.0117647 0 0 0 0 0.698039 0 0 0 0 0.529412 0 0 0 0.5 0"/>
<feBlend mode="normal" in2="BackgroundImageFix" result="effect1_dropShadow_1057_17446"/>
<feBlend mode="normal" in="SourceGraphic" in2="effect1_dropShadow_1057_17446" result="shape"/>
<feColorMatrix in="SourceAlpha" type="matrix" values="0 0 0 0 0 0 0 0 0 0 0 0 0 0 0 0 0 0 127 0" result="hardAlpha"/>
<feOffset dy="2"/>
<feGaussianBlur stdDeviation="3"/>
<feComposite in2="hardAlpha" operator="arithmetic" k2="-1" k3="1"/>
<feColorMatrix type="matrix" values="0 0 0 0 1 0 0 0 0 1 0 0 0 0 1 0 0 0 0.6 0"/>
<feBlend mode="normal" in2="shape" result="effect2_innerShadow_1057_17446"/>
</filter>
<filter id="filter3_di_1057_17446" x="21.1758" y="37.0156" width="44.7852" height="55.9844" filterUnits="userSpaceOnUse" color-interpolation-filters="sRGB">
<feFlood flood-opacity="0" result="BackgroundImageFix"/>
<feColorMatrix in="SourceAlpha" type="matrix" values="0 0 0 0 0 0 0 0 0 0 0 0 0 0 0 0 0 0 127 0" result="hardAlpha"/>
<feOffset/>
<feGaussianBlur stdDeviation="4"/>
<feComposite in2="hardAlpha" operator="out"/>
<feColorMatrix type="matrix" values="0 0 0 0 0.165801 0 0 0 0 0.612923 0 0 0 0 0.465967 0 0 0 0.5 0"/>
<feBlend mode="normal" in2="BackgroundImageFix" result="effect1_dropShadow_1057_17446"/>
<feBlend mode="normal" in="SourceGraphic" in2="effect1_dropShadow_1057_17446" result="shape"/>
<feColorMatrix in="SourceAlpha" type="matrix" values="0 0 0 0 0 0 0 0 0 0 0 0 0 0 0 0 0 0 127 0" result="hardAlpha"/>
<feOffset dy="3"/>
<feGaussianBlur stdDeviation="3"/>
<feComposite in2="hardAlpha" operator="arithmetic" k2="-1" k3="1"/>
<feColorMatrix type="matrix" values="0 0 0 0 1 0 0 0 0 1 0 0 0 0 1 0 0 0 0.9 0"/>
<feBlend mode="normal" in2="shape" result="effect2_innerShadow_1057_17446"/>
</filter>
<linearGradient id="paint0_linear_1057_17446" x1="44" y1="0" x2="44" y2="112" gradientUnits="userSpaceOnUse">
<stop stop-color="#C2FFD8"/>
<stop offset="1" stop-color="#80DBBD"/>
</linearGradient>
<linearGradient id="paint1_linear_1057_17446" x1="18" y1="13" x2="62" y2="95.5" gradientUnits="userSpaceOnUse">
<stop stop-color="#ABFFC1"/>
<stop offset="1" stop-color="#3DD3BA"/>
</linearGradient>
<clipPath id="clip0_1057_17446">
<rect width="88" height="112" fill="white"/>
</clipPath>
</defs>
</svg>
