<svg width="40" height="40" viewBox="0 0 40 40" fill="none" xmlns="http://www.w3.org/2000/svg">
<path d="M20 0C16.0444 0 12.1776 1.17298 8.8886 3.37061C5.59962 5.56823 3.03617 8.69181 1.52242 12.3463C0.00866562 16.0009 -0.387401 20.0222 0.384303 23.9018C1.15601 27.7814 3.06082 31.3451 5.85787 34.1421C8.65492 36.9392 12.2186 38.844 16.0982 39.6157C19.9778 40.3874 23.9992 39.9913 27.6537 38.4776C31.3082 36.9638 34.4318 34.4004 36.6294 31.1114C38.827 27.8224 40 23.9556 40 20C39.9898 14.6988 37.8794 9.61762 34.1309 5.86909C30.3824 2.12057 25.3012 0.0101653 20 0ZM27.25 25.0577C27.5389 25.3494 27.701 25.7433 27.701 26.1538C27.701 26.5644 27.5389 26.9583 27.25 27.25C26.9559 27.5343 26.5629 27.6933 26.1539 27.6933C25.7448 27.6933 25.3518 27.5343 25.0577 27.25L20 22.1731L14.9423 27.25C14.6483 27.5343 14.2552 27.6933 13.8462 27.6933C13.4371 27.6933 13.0441 27.5343 12.75 27.25C12.4611 26.9583 12.299 26.5644 12.299 26.1538C12.299 25.7433 12.4611 25.3494 12.75 25.0577L17.8269 20L12.75 14.9423C12.5047 14.6434 12.3793 14.2639 12.3983 13.8777C12.4172 13.4914 12.5792 13.1261 12.8526 12.8526C13.1261 12.5792 13.4914 12.4172 13.8777 12.3983C14.2639 12.3793 14.6434 12.5047 14.9423 12.75L20 17.8269L25.0577 12.75C25.3566 12.5047 25.7361 12.3793 26.1223 12.3983C26.5086 12.4172 26.8739 12.5792 27.1474 12.8526C27.4208 13.1261 27.5828 13.4914 27.6017 13.8777C27.6207 14.2639 27.4953 14.6434 27.25 14.9423L22.1731 20L27.25 25.0577Z" fill="#30323B"/>
</svg>
