<svg width="25" height="24" viewBox="0 0 25 24" fill="none" xmlns="http://www.w3.org/2000/svg">
<path d="M21.4627 10.7062L5.74082 1.69687C5.50912 1.56499 5.24679 1.49643 4.98019 1.49808C4.71359 1.49972 4.45213 1.57152 4.22207 1.70624C3.99666 1.83638 3.80952 2.02362 3.6795 2.2491C3.54948 2.47458 3.48117 2.73034 3.48145 2.99062V21.0094C3.48392 21.4056 3.64305 21.7847 3.92409 22.064C4.20512 22.3433 4.58524 22.5 4.98145 22.5C5.24707 22.4991 5.5082 22.4314 5.74082 22.3031L21.4627 13.2937C21.6956 13.1674 21.8901 12.9805 22.0256 12.7528C22.1612 12.5251 22.2327 12.265 22.2327 12C22.2327 11.735 22.1612 11.4749 22.0256 11.2472C21.8901 11.0195 21.6956 10.8326 21.4627 10.7062ZM14.0002 13.0594L15.7721 14.8312L7.50332 19.5562L14.0002 13.0594ZM7.50332 4.43437L15.7721 9.16874L14.0002 10.9406L7.50332 4.43437ZM17.1127 14.0531L15.0596 12L17.1127 9.94687L20.7127 12L17.1127 14.0531Z" fill="#101116"/>
</svg>
