<svg width="24" height="24" viewBox="0 0 24 24" fill="none" xmlns="http://www.w3.org/2000/svg">
<path d="M11.9627 2.64503C10.5008 2.64206 9.07378 3.09118 7.87709 3.93087C6.6804 4.77056 5.77262 5.95974 5.27814 7.33547C4.78365 8.71119 4.72665 10.2062 5.11494 11.6156C5.50323 13.0249 6.31782 14.2798 7.44709 15.2082V21.3527C7.44643 21.4627 7.47432 21.5711 7.52802 21.6672C7.58172 21.7633 7.65941 21.8439 7.75351 21.901C7.84685 21.9597 7.95368 21.9934 8.06379 21.9991C8.1739 22.0047 8.28362 21.9821 8.38247 21.9332L11.9627 20.135L15.543 21.9332C15.6345 21.9737 15.7332 21.9956 15.8333 21.9977C16.0044 21.9977 16.1684 21.9298 16.2894 21.8088C16.4104 21.6878 16.4784 21.5237 16.4784 21.3527V15.2082C17.6076 14.2798 18.4222 13.0249 18.8105 11.6156C19.1988 10.2062 19.1418 8.71119 18.6473 7.33547C18.1528 5.95974 17.245 4.77056 16.0484 3.93087C14.8517 3.09118 13.4246 2.64206 11.9627 2.64503ZM11.9627 15.5468C10.8144 15.5468 9.69195 15.2063 8.73719 14.5684C7.78242 13.9304 7.03828 13.0237 6.59885 11.9628C6.15942 10.9019 6.04445 9.73459 6.26847 8.60837C6.49249 7.48215 7.04544 6.44766 7.85739 5.6357C8.66935 4.82374 9.70385 4.27079 10.8301 4.04677C11.9563 3.82275 13.1236 3.93773 14.1845 4.37716C15.2454 4.81659 16.1521 5.56073 16.7901 6.51549C17.428 7.47025 17.7685 8.59275 17.7685 9.74103C17.7664 11.2802 17.154 12.7557 16.0657 13.844C14.9774 14.9323 13.5019 15.5447 11.9627 15.5468Z" fill="#FFA800"/>
<circle cx="11.7411" cy="9.74121" r="7.24109" fill="#FFA800" stroke="white"/>
<path d="M11.7408 11.6012L12.9794 12.2807C13.2207 12.4131 13.5026 12.1993 13.4564 11.9186L13.22 10.4784L14.2222 9.45924C14.4173 9.26059 14.3097 8.91439 14.0402 8.87336L12.6555 8.66319L12.0365 7.35252C11.9159 7.09701 11.5678 7.09701 11.4472 7.35252L10.8282 8.66319L9.44275 8.87408C9.17324 8.91511 9.06571 9.26131 9.26078 9.45996L10.263 10.4791L10.0266 11.9194C9.98039 12.2001 10.2623 12.4138 10.5035 12.2814L11.7422 11.6019H11.7408V11.6012Z" fill="white" stroke="white" stroke-width="0.5" stroke-linecap="round" stroke-linejoin="round"/>
</svg>
