<svg width="24" height="24" viewBox="0 0 24 24" fill="none" xmlns="http://www.w3.org/2000/svg">
<g clip-path="url(#clip0_6846_82530)">
<path d="M8.02615 6.30333C8.76906 7.03464 8.76906 8.21535 8.02615 8.94666C7.27666 9.68443 6.05667 9.68443 5.30719 8.94666C4.56427 8.21535 4.56427 7.03464 5.30719 6.30333C6.05667 5.56556 7.27666 5.56556 8.02615 6.30333Z" stroke="#737684" stroke-width="1.5" stroke-linecap="round" stroke-linejoin="round"/>
<path d="M19.1118 7.625H9.33398" stroke="#737684" stroke-width="1.5" stroke-linecap="round" stroke-linejoin="round"/>
<path d="M18.6922 15.0533C19.4351 15.7846 19.4351 16.9653 18.6922 17.6966C17.9427 18.4344 16.7227 18.4344 15.9732 17.6966C15.2303 16.9653 15.2303 15.7846 15.9732 15.0533C16.7227 14.3155 17.9427 14.3155 18.6922 15.0533Z" stroke="#737684" stroke-width="1.5" stroke-linecap="round" stroke-linejoin="round"/>
<path d="M4.88867 16.375H14.6665" stroke="#737684" stroke-width="1.5" stroke-linecap="round" stroke-linejoin="round"/>
</g>
<defs>
<clipPath id="clip0_6846_82530">
<rect width="24" height="24" fill="white"/>
</clipPath>
</defs>
</svg>
