<svg width="25" height="24" viewBox="0 0 25 24" fill="none" xmlns="http://www.w3.org/2000/svg">
<path d="M18.5949 12.5178C18.5697 9.78158 20.8928 8.45042 20.999 8.38845C19.6833 6.5182 17.6441 6.26267 16.9275 6.24229C15.2148 6.06656 13.5534 7.24151 12.681 7.24151C11.7911 7.24151 10.4476 6.25927 8.99957 6.28814C7.13622 6.31615 5.39303 7.36801 4.43698 9.0014C2.46392 12.3318 3.93544 17.2261 5.82578 19.9181C6.77139 21.2365 7.87633 22.7086 9.32261 22.6568C10.7375 22.5999 11.2661 21.7773 12.9735 21.7773C14.6654 21.7773 15.1617 22.6568 16.6367 22.6237C18.1552 22.5999 19.1113 21.2994 20.0238 19.969C21.1165 18.4579 21.5554 16.9697 21.5728 16.8933C21.5371 16.8814 18.6237 15.7973 18.5949 12.5178Z" fill="#101116"/>
<path d="M15.8086 4.47137C16.5696 3.54347 17.0903 2.28107 16.9458 1C15.8443 1.04754 14.4668 1.74284 13.6736 2.65037C12.9718 3.45008 12.3449 4.76087 12.5068 5.99355C13.7441 6.08354 15.0145 5.38485 15.8086 4.47137Z" fill="#101116"/>
</svg>
