<svg width="25" height="24" viewBox="0 0 25 24" fill="none" xmlns="http://www.w3.org/2000/svg">
<g clip-path="url(#clip0_6961_59804)">
<path fill-rule="evenodd" clip-rule="evenodd" d="M14.8154 18.1803L17.501 21.0008L19.001 18.5008L21.501 17.0008L19.4481 14.8993C19.1724 15.2893 18.86 15.6613 18.5108 16.0104C17.4459 17.0753 16.1687 17.7986 14.8154 18.1803Z" fill="#2873E3"/>
<path d="M14.8154 18.1803L14.6797 17.699C14.511 17.7466 14.3795 17.879 14.3332 18.0481C14.2869 18.2171 14.3325 18.3981 14.4533 18.525L14.8154 18.1803ZM17.501 21.0008L17.1388 21.3456C17.2465 21.4586 17.4008 21.5149 17.556 21.4977C17.7111 21.4806 17.8494 21.3919 17.9297 21.258L17.501 21.0008ZM19.001 18.5008L18.7437 18.072C18.6733 18.1143 18.6144 18.1732 18.5722 18.2435L19.001 18.5008ZM21.501 17.0008L21.7582 17.4295C21.8894 17.3508 21.9773 17.2165 21.9968 17.0648C22.0164 16.9131 21.9655 16.7608 21.8586 16.6514L21.501 17.0008ZM19.4481 14.8993L19.8057 14.5499C19.702 14.4437 19.5565 14.3891 19.4085 14.4009C19.2606 14.4126 19.1255 14.4895 19.0398 14.6107L19.4481 14.8993ZM14.4533 18.525L17.1388 21.3456L17.8631 20.656L15.1775 17.8355L14.4533 18.525ZM17.9297 21.258L19.4297 18.758L18.5722 18.2435L17.0722 20.7435L17.9297 21.258ZM19.2582 18.9295L21.7582 17.4295L21.2437 16.572L18.7437 18.072L19.2582 18.9295ZM21.8586 16.6514L19.8057 14.5499L19.0904 15.2487L21.1433 17.3502L21.8586 16.6514ZM19.0398 14.6107C18.7804 14.9776 18.4863 15.3278 18.1572 15.6569L18.8644 16.364C19.2336 15.9947 19.5644 15.601 19.8564 15.1879L19.0398 14.6107ZM18.1572 15.6569C17.1544 16.6597 15.9528 17.34 14.6797 17.699L14.9511 18.6615C16.3846 18.2572 17.7374 17.4909 18.8644 16.364L18.1572 15.6569Z" fill="#2873E3"/>
<path d="M17.4497 5.05025C20.1834 7.78392 20.1834 12.2161 17.4497 14.9497C14.7161 17.6834 10.2839 17.6834 7.55025 14.9497C4.81658 12.2161 4.81658 7.78392 7.55025 5.05025C10.2839 2.31658 14.7161 2.31658 17.4497 5.05025Z" fill="#2873E3"/>
<path d="M12.5004 12.5833L14.2974 13.5273C14.6474 13.7113 15.0564 13.4143 14.9894 13.0243L14.6464 11.0233L16.1004 9.60731C16.3834 9.33131 16.2274 8.85031 15.8364 8.79331L13.8274 8.50131L12.9294 6.68031C12.7544 6.32531 12.2494 6.32531 12.0744 6.68031L11.1764 8.50131L9.16638 8.79431C8.77538 8.85131 8.61938 9.33231 8.90238 9.60831L10.3564 11.0243L10.0134 13.0253C9.94638 13.4153 10.3554 13.7123 10.7054 13.5283L12.5024 12.5843H12.5004V12.5833Z" fill="white"/>
<path fill-rule="evenodd" clip-rule="evenodd" d="M5.55255 14.8996L3.5 17.0008L6 18.5008L7.5 21.0008L10.1854 18.1804C8.83198 17.7988 7.55463 17.0754 6.48959 16.0104C6.14054 15.6614 5.8282 15.2895 5.55255 14.8996Z" fill="#2873E3"/>
<path d="M5.55255 14.8996L5.96082 14.611C5.87513 14.4898 5.74004 14.4129 5.59208 14.4012C5.44413 14.3895 5.2986 14.4441 5.19489 14.5502L5.55255 14.8996ZM3.5 17.0008L3.14234 16.6514C3.03546 16.7608 2.98454 16.9131 3.00411 17.0648C3.02369 17.2165 3.11161 17.3508 3.24275 17.4295L3.5 17.0008ZM6 18.5008L6.42875 18.2435C6.38652 18.1732 6.32762 18.1143 6.25725 18.072L6 18.5008ZM7.5 21.0008L7.07125 21.258C7.15158 21.3919 7.28982 21.4806 7.445 21.4978C7.60017 21.5149 7.75446 21.4586 7.86211 21.3456L7.5 21.0008ZM10.1854 18.1804L10.5475 18.5252C10.6684 18.3982 10.714 18.2172 10.6676 18.0482C10.6213 17.8792 10.4898 17.7467 10.3211 17.6991L10.1854 18.1804ZM6.48959 16.0104L6.84315 15.6569L6.84315 15.6569L6.48959 16.0104ZM5.19489 14.5502L3.14234 16.6514L3.85766 17.3502L5.91022 15.249L5.19489 14.5502ZM3.24275 17.4295L5.74275 18.9295L6.25725 18.072L3.75725 16.572L3.24275 17.4295ZM5.57125 18.758L7.07125 21.258L7.92875 20.7435L6.42875 18.2435L5.57125 18.758ZM7.86211 21.3456L10.5475 18.5252L9.8233 17.8356L7.13789 20.656L7.86211 21.3456ZM10.3211 17.6991C9.04789 17.3402 7.84614 16.6598 6.84315 15.6569L6.13604 16.364C7.26313 17.4911 8.61608 18.2574 10.0497 18.6616L10.3211 17.6991ZM6.84315 15.6569C6.51422 15.3279 6.22017 14.9778 5.96082 14.611L5.14429 15.1883C5.43623 15.6012 5.76686 15.9948 6.13604 16.364L6.84315 15.6569Z" fill="#2873E3"/>
</g>
<defs>
<clipPath id="clip0_6961_59804">
<rect width="24" height="24" fill="white" transform="translate(0.5)"/>
</clipPath>
</defs>
</svg>
