<svg width="28" height="28" viewBox="0 0 28 28" fill="none" xmlns="http://www.w3.org/2000/svg">
<g clip-path="url(#clip0_1057_16788)">
<path fill-rule="evenodd" clip-rule="evenodd" d="M16.7012 21.2106L19.8343 24.5012L21.5843 21.5845L24.501 19.8345L22.1059 17.3828C21.7843 17.8378 21.4198 18.2718 21.0124 18.6791C19.77 19.9215 18.28 20.7653 16.7012 21.2106Z" fill="white"/>
<path d="M16.7012 21.2106L16.5655 20.7294C16.3968 20.7769 16.2653 20.9094 16.219 21.0784C16.1726 21.2475 16.2182 21.4284 16.3391 21.5554L16.7012 21.2106ZM19.8343 24.5012L19.4722 24.846C19.5798 24.959 19.7341 25.0153 19.8893 24.9982C20.0445 24.981 20.1827 24.8923 20.263 24.7584L19.8343 24.5012ZM21.5843 21.5845L21.327 21.1558C21.2567 21.198 21.1978 21.2569 21.1555 21.3273L21.5843 21.5845ZM24.501 19.8345L24.7582 20.2633C24.8893 20.1846 24.9773 20.0502 24.9968 19.8985C25.0164 19.7468 24.9655 19.5945 24.8586 19.4851L24.501 19.8345ZM22.1059 17.3828L22.4636 17.0334C22.3599 16.9272 22.2143 16.8726 22.0664 16.8844C21.9184 16.8961 21.7833 16.973 21.6976 17.0942L22.1059 17.3828ZM21.0124 18.6791L20.6589 18.3255L20.6589 18.3255L21.0124 18.6791ZM16.3391 21.5554L19.4722 24.846L20.1964 24.1564L17.0633 20.8658L16.3391 21.5554ZM20.263 24.7584L22.013 21.8418L21.1555 21.3273L19.4055 24.244L20.263 24.7584ZM21.8415 22.0133L24.7582 20.2633L24.2437 19.4058L21.327 21.1558L21.8415 22.0133ZM24.8586 19.4851L22.4636 17.0334L21.7483 17.7322L24.1433 20.1839L24.8586 19.4851ZM21.6976 17.0942C21.3923 17.5261 21.0461 17.9383 20.6589 18.3255L21.366 19.0327C21.7935 18.6052 22.1763 18.1495 22.5142 17.6714L21.6976 17.0942ZM20.6589 18.3255C19.4785 19.5059 18.0641 20.3067 16.5655 20.7294L16.8369 21.6918C18.4959 21.2239 20.0615 20.3371 21.366 19.0327L20.6589 18.3255Z" fill="white"/>
<path d="M19.7744 5.89196C22.9637 9.08124 22.9637 14.2521 19.7744 17.4414C16.5851 20.6306 11.4143 20.6306 8.22497 17.4414C5.03569 14.2521 5.03569 9.08124 8.22497 5.89196C11.4143 2.70268 16.5851 2.70268 19.7744 5.89196Z" fill="white"/>
<path d="M14.0001 14.6799L16.0966 15.7812C16.5049 15.9959 16.9821 15.6494 16.9039 15.1944L16.5038 12.8599L18.2001 11.2079C18.5303 10.8859 18.3483 10.3247 17.8921 10.2582L15.5483 9.91755L14.5006 7.79305C14.2964 7.37888 13.7073 7.37888 13.5031 7.79305L12.4554 9.91755L10.1104 10.2594C9.65428 10.3259 9.47228 10.887 9.80245 11.209L11.4988 12.861L11.0986 15.1955C11.0204 15.6505 11.4976 15.997 11.9059 15.7824L14.0024 14.681H14.0001V14.6799Z" fill="#436594"/>
<path fill-rule="evenodd" clip-rule="evenodd" d="M5.89465 17.3828L3.5 19.8341L6.41667 21.5841L8.16667 24.5008L11.2996 21.2103C9.72065 20.7651 8.2304 19.9213 6.98786 18.6787C6.58063 18.2715 6.21623 17.8377 5.89465 17.3828Z" fill="white"/>
<path d="M5.89465 17.3828L6.30291 17.0942C6.21723 16.973 6.08213 16.8961 5.93417 16.8844C5.78622 16.8726 5.6407 16.9272 5.53698 17.0334L5.89465 17.3828ZM3.5 19.8341L3.14234 19.4848C3.03546 19.5942 2.98454 19.7465 3.00411 19.8981C3.02369 20.0498 3.11161 20.1842 3.24275 20.2629L3.5 19.8341ZM6.41667 21.5841L6.84541 21.3269C6.80319 21.2565 6.74429 21.1976 6.67391 21.1554L6.41667 21.5841ZM8.16667 24.5008L7.73792 24.7581C7.81824 24.8919 7.95649 24.9806 8.11166 24.9978C8.26684 25.015 8.42112 24.9587 8.52878 24.8456L8.16667 24.5008ZM11.2996 21.2103L11.6618 21.5551C11.7826 21.4282 11.8282 21.2472 11.7819 21.0782C11.7355 20.9091 11.604 20.7767 11.4353 20.7291L11.2996 21.2103ZM5.53698 17.0334L3.14234 19.4848L3.85766 20.1835L6.25231 17.7322L5.53698 17.0334ZM3.24275 20.2629L6.15942 22.0129L6.67391 21.1554L3.75725 19.4054L3.24275 20.2629ZM5.98792 21.8414L7.73792 24.7581L8.59541 24.2436L6.84541 21.3269L5.98792 21.8414ZM8.52878 24.8456L11.6618 21.5551L10.9375 20.8656L7.80455 24.156L8.52878 24.8456ZM11.4353 20.7291C9.93655 20.3065 8.52191 19.5057 7.34141 18.3252L6.63431 19.0323C7.9389 20.3369 9.50474 21.2238 11.164 21.6916L11.4353 20.7291ZM7.34141 18.3252C6.95431 17.9381 6.6082 17.526 6.30291 17.0942L5.48638 17.6715C5.82426 18.1494 6.20695 18.6049 6.63431 19.0323L7.34141 18.3252Z" fill="white"/>
</g>
<defs>
<clipPath id="clip0_1057_16788">
<rect width="28" height="28" fill="white"/>
</clipPath>
</defs>
</svg>
