<svg width="24" height="24" viewBox="0 0 24 24" fill="none" xmlns="http://www.w3.org/2000/svg">
<path fill-rule="evenodd" clip-rule="evenodd" d="M14.0077 3.03769C14.3246 3.12052 14.59 3.33327 14.7366 3.62189C15.2892 4.7099 15.7017 5.37024 16.1166 5.90564C16.5367 6.44759 16.981 6.89125 17.6569 7.55656C19.2187 9.09403 20 11.1114 20 13.125C20 15.1387 19.2187 17.156 17.6569 18.6935C14.5327 21.7688 9.46734 21.7688 6.34314 18.6935C4.78127 17.156 4 15.1387 4 13.125C4 11.1114 4.78127 9.09403 6.34315 7.55656C6.67 7.23481 7.16156 7.13856 7.58862 7.31269C8.01568 7.48682 8.29413 7.89703 8.29413 8.35205C8.29412 9.61184 8.37404 10.5718 8.74835 11.3374C8.95418 11.7584 9.27526 12.17 9.82862 12.5373C9.96078 11.344 10.2029 9.89003 10.53 8.50999C10.7876 7.42344 11.1079 6.33869 11.4891 5.43411C11.6798 4.98167 11.8955 4.55086 12.1404 4.17889C12.3788 3.81683 12.6851 3.4484 13.0804 3.18895C13.3532 3.00996 13.6909 2.95487 14.0077 3.03769ZM14.4244 17.7615C13.0854 19.0795 10.9146 19.0795 9.57563 17.7615C8.90617 17.1025 8.57143 16.2387 8.57143 15.375C8.57143 15.375 9.57563 15.9375 11.4286 15.9375C11.4286 14.8125 12.0001 11.4375 12.8572 10.875C13.4286 12 13.7549 12.3295 14.4244 12.9885C15.0938 13.6475 15.4286 14.5113 15.4286 15.375C15.4286 16.2387 15.0938 17.1025 14.4244 17.7615Z" fill="#FE6E00"/>
</svg>
