<svg width="25" height="24" viewBox="0 0 25 24" fill="none" xmlns="http://www.w3.org/2000/svg">
<path d="M21.3727 12.5294C21.3727 12.0324 20.9698 11.6294 20.4727 11.6294C19.9756 11.6294 19.5727 12.0324 19.5727 12.5294H21.3727ZM11.9219 4.95882C12.419 4.95882 12.8219 4.55588 12.8219 4.05882C12.8219 3.56177 12.419 3.15882 11.9219 3.15882V4.95882ZM17.0973 12.5294C17.0973 12.0324 16.6944 11.6294 16.1973 11.6294C15.7002 11.6294 15.2973 12.0324 15.2973 12.5294H17.0973ZM11.9219 9.19412C12.419 9.19412 12.8219 8.79117 12.8219 8.29412C12.8219 7.79706 12.419 7.39412 11.9219 7.39412V9.19412ZM16.3342 9.25457C16.6874 8.90475 16.6901 8.33491 16.3402 7.98179C15.9904 7.62866 15.4206 7.62598 15.0675 7.97579L16.3342 9.25457ZM11.2885 11.7193C10.9354 12.0691 10.9327 12.6389 11.2825 12.9921C11.6323 13.3452 12.2022 13.3479 12.5553 12.9981L11.2885 11.7193ZM21.3711 5.99481L22.0045 6.63419C22.2474 6.3936 22.3329 6.03616 22.2254 5.71165C22.1178 5.38714 21.8357 5.15159 21.4972 5.10368L21.3711 5.99481ZM17.97 9.36396L17.6878 10.2186C18.0092 10.3247 18.363 10.2415 18.6034 10.0033L17.97 9.36396ZM14.9469 6.36916L14.3135 5.72977C14.0696 5.9714 13.9844 6.33077 14.0939 6.65618L14.9469 6.36916ZM18.3479 3L19.2387 2.87154C19.1902 2.5351 18.9563 2.25471 18.634 2.14667C18.3117 2.03863 17.956 2.12139 17.7145 2.36061L18.3479 3ZM15.7027 8.61526L14.8497 8.90229C14.94 9.17077 15.1515 9.38105 15.4205 9.46987L15.7027 8.61526ZM18.7258 5.62045L17.835 5.74891C17.8921 6.14482 18.2037 6.45553 18.5997 6.51158L18.7258 5.62045ZM19.5727 12.5294C19.5727 16.7026 16.1553 20.1 11.9219 20.1V21.9C17.1334 21.9 21.3727 17.7126 21.3727 12.5294H19.5727ZM11.9219 20.1C7.68846 20.1 4.27109 16.7026 4.27109 12.5294H2.47109C2.47109 17.7126 6.71038 21.9 11.9219 21.9V20.1ZM4.27109 12.5294C4.27109 8.35627 7.68846 4.95882 11.9219 4.95882V3.15882C6.71038 3.15882 2.47109 7.3462 2.47109 12.5294H4.27109ZM15.2973 12.5294C15.2973 14.3635 13.7941 15.8647 11.9219 15.8647V17.6647C14.7722 17.6647 17.0973 15.3735 17.0973 12.5294H15.2973ZM11.9219 15.8647C10.0497 15.8647 8.5465 14.3635 8.5465 12.5294H6.7465C6.7465 15.3735 9.07162 17.6647 11.9219 17.6647V15.8647ZM8.5465 12.5294C8.5465 10.6954 10.0497 9.19412 11.9219 9.19412V7.39412C9.07162 7.39412 6.7465 9.68529 6.7465 12.5294H8.5465ZM15.0675 7.97579L11.2885 11.7193L12.5553 12.9981L16.3342 9.25457L15.0675 7.97579ZM20.7377 5.35542L17.3366 8.72457L18.6034 10.0033L22.0045 6.63419L20.7377 5.35542ZM15.5803 7.00854L18.9813 3.63939L17.7145 2.36061L14.3135 5.72977L15.5803 7.00854ZM18.2522 8.50935L15.9849 7.76065L15.4205 9.46987L17.6878 10.2186L18.2522 8.50935ZM16.5557 8.32823L15.7999 6.08213L14.0939 6.65618L14.8497 8.90229L16.5557 8.32823ZM17.4571 3.12846L17.835 5.74891L19.6166 5.49199L19.2387 2.87154L17.4571 3.12846ZM18.5997 6.51158L21.245 6.88593L21.4972 5.10368L18.8519 4.72933L18.5997 6.51158Z" fill="#308AF2"/>
</svg>
