<svg width="25" height="24" viewBox="0 0 25 24" fill="none" xmlns="http://www.w3.org/2000/svg">
<path d="M20.525 7.71582L15.2844 2.46582L15.2562 2.44707L15.2281 2.41895L15.2 2.4002L15.1719 2.38145C15.1625 2.37207 15.1531 2.37207 15.1531 2.3627L15.1063 2.33457H15.0875L15.0406 2.30645H15.0312L14.9656 2.27832H5.75C5.357 2.27825 4.97967 2.43242 4.69916 2.70767C4.41865 2.98292 4.25737 3.35727 4.25 3.7502V20.2502C4.25 20.648 4.40804 21.0296 4.68934 21.3109C4.97064 21.5922 5.35218 21.7502 5.75 21.7502H19.25C19.6478 21.7502 20.0294 21.5922 20.3107 21.3109C20.592 21.0296 20.75 20.648 20.75 20.2502V8.2502C20.7509 8.15049 20.7314 8.05165 20.6927 7.95975C20.654 7.86786 20.597 7.78485 20.525 7.71582ZM15.6594 14.4096C15.5172 14.5504 15.3251 14.6294 15.125 14.6294C14.9249 14.6294 14.7328 14.5504 14.5906 14.4096L13.25 13.0596V17.2502C13.25 17.4491 13.171 17.6399 13.0303 17.7805C12.8897 17.9212 12.6989 18.0002 12.5 18.0002C12.3011 18.0002 12.1103 17.9212 11.9697 17.7805C11.829 17.6399 11.75 17.4491 11.75 17.2502V13.0596L10.4094 14.4096C10.2637 14.5292 10.0787 14.5903 9.89037 14.581C9.70208 14.5718 9.52396 14.4928 9.39066 14.3595C9.25736 14.2262 9.1784 14.0481 9.16916 13.8598C9.15991 13.6715 9.22103 13.4865 9.34063 13.3408L11.9656 10.7158H11.975L12.0219 10.6689L12.05 10.6502L12.0875 10.6221L12.1156 10.6033L12.1437 10.5846H12.1812L12.2094 10.5658H12.2469L12.2844 10.5471H12.7156L12.7531 10.5658H12.7906L12.8187 10.5846H12.8563L12.8844 10.6033L12.9125 10.6221L12.95 10.6502L12.9781 10.6689L13.025 10.7158H13.0344L15.6594 13.3408C15.8002 13.483 15.8792 13.6751 15.8792 13.8752C15.8792 14.0753 15.8002 14.2674 15.6594 14.4096ZM14.75 8.2502V4.05957L18.9406 8.2502H14.75Z" fill="#101116"/>
</svg>
