<svg width="24" height="24" viewBox="0 0 24 24" fill="none" xmlns="http://www.w3.org/2000/svg">
<path fill-rule="evenodd" clip-rule="evenodd" d="M2.15083 12.5378C1.94972 12.2093 1.94972 11.7936 2.15083 11.4652C4.26744 7.99423 8.134 5.00146 12.0006 5.00146C15.8671 5.00146 19.7326 7.99423 21.8492 11.4641C22.0503 11.7936 22.0503 12.2104 21.8492 12.5399C19.7326 16.0087 15.8671 19.0015 12.0006 19.0015C8.134 19.0015 4.26744 16.0087 2.15083 12.5378Z" stroke="#979BAA" stroke-width="2" stroke-linecap="round" stroke-linejoin="round"/>
<path d="M14.357 9.71712C15.6592 10.9793 15.6592 13.0244 14.357 14.2865C13.0548 15.5487 10.9448 15.5487 9.64266 14.2865C8.34047 13.0244 8.34047 10.9793 9.64266 9.71712C10.9448 8.45497 13.0559 8.45497 14.357 9.71712" stroke="#979BAA" stroke-width="2" stroke-linecap="round" stroke-linejoin="round"/>
</svg>
