<svg width="24" height="24" viewBox="0 0 24 24" fill="none" xmlns="http://www.w3.org/2000/svg">
<path d="M9.34863 14.0078H14.4806" stroke="white" stroke-width="1.2" stroke-linecap="round" stroke-linejoin="round"/>
<path d="M9.34863 11.5059H14.4806" stroke="white" stroke-width="1.2" stroke-linecap="round" stroke-linejoin="round"/>
<path d="M14.4809 5.25098H17.6883C17.8585 5.25098 18.0216 5.31464 18.142 5.42797C18.2623 5.5413 18.3298 5.69501 18.3298 5.85528V18.5457C18.3298 18.7059 18.2623 18.8596 18.142 18.973C18.0216 19.0863 17.8585 19.15 17.6883 19.15H6.14149C5.97136 19.15 5.80819 19.0863 5.68789 18.973C5.56759 18.8596 5.5 18.7059 5.5 18.5457V5.85528C5.5 5.69501 5.56759 5.5413 5.68789 5.42797C5.80819 5.31464 5.97136 5.25098 6.14149 5.25098H9.34895" stroke="white" stroke-width="1.2" stroke-linecap="round" stroke-linejoin="round"/>
<path d="M8.70801 7.75273V7.12727C8.70801 6.29787 9.04594 5.50243 9.64745 4.91596C10.249 4.32948 11.0648 4 11.9155 4C12.7661 4 13.582 4.32948 14.1835 4.91596C14.785 5.50243 15.1229 6.29787 15.1229 7.12727V7.75273H8.70801Z" stroke="white" stroke-width="1.2" stroke-linecap="round" stroke-linejoin="round"/>
</svg>
