<svg width="28" height="28" viewBox="0 0 28 28" fill="none" xmlns="http://www.w3.org/2000/svg">
<path d="M26.1616 10.6531C26.0521 10.3086 25.841 10.0052 25.5561 9.78265C25.2711 9.56015 24.9256 9.42895 24.5648 9.40625L18.0679 8.95781L15.6616 2.8875C15.5302 2.55325 15.3015 2.26614 15.0051 2.06334C14.7087 1.86054 14.3583 1.75138 13.9991 1.75C13.64 1.75138 13.2895 1.86054 12.9931 2.06334C12.6967 2.26614 12.468 2.55325 12.3366 2.8875L9.88662 8.99062L3.4335 9.40625C3.07311 9.43042 2.72827 9.56217 2.44358 9.78446C2.15889 10.0068 1.94746 10.3094 1.83662 10.6531C1.72281 11.0022 1.71616 11.3773 1.81753 11.7302C1.9189 12.083 2.12365 12.3974 2.40537 12.6328L7.371 16.8328L5.89444 22.6406C5.79228 23.0335 5.81066 23.4481 5.9472 23.8304C6.08374 24.2127 6.33212 24.5451 6.66006 24.7844C6.97838 25.0128 7.35762 25.1411 7.74926 25.1528C8.1409 25.1645 8.52712 25.0591 8.8585 24.85L13.9882 21.6016H14.0101L19.5335 25.0906C19.8168 25.2747 20.1472 25.3735 20.4851 25.375C20.761 25.3728 21.0327 25.3074 21.2794 25.1838C21.526 25.0602 21.7411 24.8817 21.908 24.662C22.0749 24.4423 22.1892 24.1873 22.2421 23.9165C22.295 23.6457 22.2851 23.3664 22.2132 23.1L20.6491 16.7453L25.5929 12.6328C25.8746 12.3974 26.0793 12.083 26.1807 11.7302C26.2821 11.3773 26.2754 11.0022 26.1616 10.6531Z" fill="#308AF2"/>
</svg>
