<svg width="164" height="114" viewBox="0 0 164 114" fill="none" xmlns="http://www.w3.org/2000/svg">
<path d="M0 14H164V106C164 110.418 160.418 114 156 114H8C3.58172 114 0 110.418 0 106V14Z" fill="#E4F2FF" fill-opacity="0.8"/>
<path d="M0 4C0 1.79086 1.79086 0 4 0H160C162.209 0 164 1.79086 164 4V14H0V4Z" fill="#3868AB" fill-opacity="0.4"/>
<ellipse cx="7.49121" cy="6.99995" rx="2" ry="1.99995" fill="white"/>
<ellipse cx="15.4912" cy="6.99995" rx="2" ry="1.99995" fill="white"/>
<ellipse cx="23.4912" cy="6.99995" rx="2" ry="1.99995" fill="white"/>
<path d="M109.175 75L87.2 37C86.674 36.0861 85.9163 35.327 85.0034 34.7991C84.0905 34.2713 83.0546 33.9933 82 33.9933C80.9455 33.9933 79.9096 34.2713 78.9967 34.7991C78.0838 35.327 77.3261 36.0861 76.8 37L54.825 75C54.2912 75.9093 54.0075 76.9437 54.0027 77.9981C53.998 79.0525 54.2723 80.0894 54.7979 81.0034C55.3235 81.9175 56.0816 82.6762 56.9953 83.2025C57.909 83.7288 58.9456 84.004 60 84H104C105.054 84.004 106.091 83.7288 107.005 83.2025C107.918 82.6762 108.677 81.9175 109.202 81.0034C109.728 80.0894 110.002 79.0525 109.997 77.9981C109.993 76.9437 109.709 75.9093 109.175 75ZM80 54C80 53.4696 80.2108 52.9609 80.5858 52.5858C80.9609 52.2107 81.4696 52 82 52C82.5305 52 83.0392 52.2107 83.4143 52.5858C83.7893 52.9609 84 53.4696 84 54V64C84 64.5305 83.7893 65.0392 83.4143 65.4142C83.0392 65.7893 82.5305 66 82 66C81.4696 66 80.9609 65.7893 80.5858 65.4142C80.2108 65.0392 80 64.5305 80 64V54ZM82 76C81.4067 76 80.8267 75.8241 80.3333 75.4944C79.84 75.1648 79.4555 74.6963 79.2284 74.1481C79.0013 73.5999 78.9419 72.9967 79.0577 72.4148C79.1734 71.8328 79.4592 71.2983 79.8787 70.8787C80.2983 70.4591 80.8328 70.1734 81.4148 70.0577C81.9967 69.9419 82.5999 70.0013 83.1481 70.2284C83.6963 70.4554 84.1648 70.84 84.4944 71.3333C84.8241 71.8267 85 72.4067 85 73C85 73.7957 84.684 74.5587 84.1214 75.1213C83.5587 75.684 82.7957 76 82 76Z" fill="#3868AB" fill-opacity="0.3"/>
</svg>
