<svg width="16" height="16" viewBox="0 0 16 16" fill="none" xmlns="http://www.w3.org/2000/svg">
<g clip-path="url(#clip0_6373_12331)">
<path d="M4.84518 3.48815C5.49605 4.13903 5.49605 5.19431 4.84518 5.84518C4.19431 6.49605 3.13903 6.49605 2.48815 5.84518C1.83728 5.19431 1.83728 4.13903 2.48815 3.48815C3.13903 2.83728 4.19431 2.83728 4.84518 3.48815Z" stroke="#308AF2" stroke-width="1.5" stroke-linecap="round" stroke-linejoin="round"/>
<path d="M13.194 4.75943H5.95117" stroke="#308AF2" stroke-width="1.5" stroke-linecap="round" stroke-linejoin="round"/>
<path d="M12.7465 10.1548C13.3974 10.8057 13.3974 11.861 12.7465 12.5119C12.0957 13.1627 11.0404 13.1627 10.3895 12.5119C9.73865 11.861 9.73865 10.8057 10.3895 10.1548C11.0404 9.50395 12.0957 9.50395 12.7465 10.1548Z" stroke="#308AF2" stroke-width="1.5" stroke-linecap="round" stroke-linejoin="round"/>
<path d="M2.6582 11.2411H9.90101" stroke="#308AF2" stroke-width="1.5" stroke-linecap="round" stroke-linejoin="round"/>
</g>
<defs>
<clipPath id="clip0_6373_12331">
<rect width="16" height="16" fill="white"/>
</clipPath>
</defs>
</svg>
