<svg width="16" height="16" viewBox="0 0 16 16" fill="none" xmlns="http://www.w3.org/2000/svg">
<path d="M5.13706 4.93828L5.57563 5.34774L5.62294 5.29707L5.65745 5.23694L5.13706 4.93828ZM6.97261 1.74004L7.493 2.0387L7.53019 1.97389L7.55036 1.90193L6.97261 1.74004ZM8.46576 1.10071L8.26404 1.66578L8.46576 1.10071ZM9.49255 4.81205L10.0772 4.94697L10.0772 4.94697L9.49255 4.81205ZM13.9073 5.36481L13.5661 5.85837L13.5661 5.85837L13.9073 5.36481ZM14.9361 8.13657L14.3463 8.02642L14.3425 8.04661L14.3401 8.06701L14.9361 8.13657ZM14.6507 10.5821L15.2466 10.6516L14.6507 10.5821ZM13.2201 13.7135L12.9762 13.1653L12.9762 13.1653L13.2201 13.7135ZM5.65745 5.23694L7.493 2.0387L6.45222 1.44138L4.61668 4.63961L5.65745 5.23694ZM6.97261 1.74004C7.55036 1.90193 7.55027 1.90225 7.55018 1.90256C7.55015 1.90266 7.55006 1.90297 7.55001 1.90317C7.54989 1.90357 7.54978 1.90396 7.54968 1.90433C7.54947 1.90508 7.54927 1.90576 7.54909 1.90639C7.54872 1.90766 7.54841 1.90869 7.54816 1.90952C7.54767 1.91117 7.54741 1.91197 7.5474 1.912C7.54739 1.91204 7.54833 1.9091 7.55033 1.90371C7.55442 1.8927 7.5623 1.87307 7.57451 1.84867C7.60025 1.79723 7.63731 1.74036 7.68486 1.69511C7.7285 1.65358 7.77941 1.62267 7.84836 1.60861C7.91832 1.59435 8.04886 1.58896 8.26404 1.66578L8.66749 0.535636C8.28541 0.399237 7.93067 0.367158 7.60868 0.432793C7.28568 0.498634 7.03795 0.654209 6.85762 0.825814C6.6812 0.993701 6.56894 1.17662 6.50136 1.31169C6.46691 1.38054 6.44213 1.44084 6.42522 1.48645C6.41672 1.50937 6.41008 1.5289 6.40511 1.54435C6.40262 1.55208 6.40054 1.55882 6.39884 1.56447C6.39799 1.5673 6.39724 1.56986 6.39658 1.57214C6.39625 1.57328 6.39594 1.57436 6.39565 1.57536C6.39551 1.57586 6.39537 1.57634 6.39524 1.57681C6.39517 1.57704 6.39508 1.57738 6.39505 1.57749C6.39495 1.57783 6.39486 1.57815 6.97261 1.74004ZM8.26404 1.66578C8.53627 1.76296 8.79736 2.10107 8.93367 2.7604C9.06337 3.38775 9.03539 4.12478 8.90792 4.67712L10.0772 4.94697C10.2402 4.24044 10.2764 3.32798 10.1088 2.51745C9.94787 1.73892 9.5503 0.850792 8.66749 0.535636L8.26404 1.66578ZM9.59137 5.53828H11.8862V4.33828H9.59137V5.53828ZM13.5661 5.85837C13.8357 6.0447 14.0787 6.30066 14.2309 6.63828C14.3809 6.97111 14.4595 7.42018 14.3463 8.02642L15.5259 8.24671C15.6796 7.42366 15.5853 6.72289 15.3249 6.14518C15.0666 5.57226 14.6618 5.15699 14.2485 4.87125L13.5661 5.85837ZM14.3401 8.06701L14.0547 10.5125L15.2466 10.6516L15.532 8.20613L14.3401 8.06701ZM12.9762 13.1653C12.6681 13.3023 12.2038 13.4 11.4521 13.4V14.6C12.2932 14.6 12.9438 14.493 13.4639 14.2617L12.9762 13.1653ZM11.4521 13.4H2.99087V14.6H11.4521V13.4ZM2.99087 13.4C2.79833 13.4 2.45487 13.3163 2.16296 13.035C1.886 12.768 1.6 12.2687 1.6 11.3348H0.4C0.4 12.533 0.777623 13.3664 1.33019 13.899C1.86781 14.4172 2.51979 14.6 2.99087 14.6V13.4ZM1.6 11.3348V7.60353H0.4V11.3348H1.6ZM1.6 7.60353C1.6 7.33625 1.6795 6.92788 1.89611 6.60569C2.09112 6.31562 2.40797 6.07137 2.99087 6.07137V4.87137C1.98107 4.87137 1.30249 5.33784 0.90024 5.93617C0.51959 6.50237 0.4 7.16008 0.4 7.60353H1.6ZM2.99087 6.07137C3.82624 6.07137 4.39471 5.97892 4.79756 5.83766C5.22438 5.68799 5.44142 5.49149 5.57563 5.34774L4.6985 4.52881C4.66681 4.56276 4.6071 4.63281 4.40047 4.70526C4.16987 4.78612 3.74819 4.87137 2.99087 4.87137V6.07137ZM14.0547 10.5125C13.9833 11.1246 13.9076 11.7171 13.7318 12.2143C13.5596 12.7016 13.3211 13.0118 12.9762 13.1653L13.4639 14.2617C14.2252 13.923 14.6318 13.2689 14.8633 12.6142C15.0912 11.9693 15.1777 11.2421 15.2466 10.6516L14.0547 10.5125ZM11.8862 5.53828C12.6113 5.53828 13.1617 5.57882 13.5661 5.85837L14.2485 4.87125C13.4945 4.35009 12.5692 4.33828 11.8862 4.33828V5.53828ZM8.90792 4.67712C8.8094 5.10399 9.12645 5.53828 9.59137 5.53828V4.33828C9.92488 4.33828 10.1461 4.64815 10.0772 4.94697L8.90792 4.67712Z" fill="#737684"/>
<path d="M4.23047 5.33331V14" stroke="#737684" stroke-width="1.2"/>
</svg>
