<svg width="16" height="16" viewBox="0 0 16 16" fill="none" xmlns="http://www.w3.org/2000/svg">
<path fill-rule="evenodd" clip-rule="evenodd" d="M1.4339 8.35753C1.29983 8.13856 1.29983 7.86143 1.4339 7.64246C2.84497 5.32851 5.42267 3.33333 8.00038 3.33333C10.5781 3.33333 13.1551 5.32851 14.5661 7.64174C14.7002 7.86143 14.7002 8.13928 14.5661 8.35897C13.1551 10.6715 10.5781 12.6667 8.00038 12.6667C5.42267 12.6667 2.84497 10.6715 1.4339 8.35753Z" stroke="#737684" stroke-width="1.5" stroke-linecap="round" stroke-linejoin="round"/>
<path d="M9.57143 6.47724C10.4396 7.31867 10.4396 8.68206 9.57143 9.52349C8.70331 10.3649 7.29668 10.3649 6.42856 9.52349C5.56043 8.68206 5.56043 7.31867 6.42856 6.47724C7.29668 5.6358 8.70405 5.6358 9.57143 6.47724" stroke="#737684" stroke-width="1.5" stroke-linecap="round" stroke-linejoin="round"/>
</svg>
