<svg width="120" height="120" viewBox="0 0 120 120" fill="none" xmlns="http://www.w3.org/2000/svg">
<path d="M100.172 38.5782L73.9219 12.3282C73.2075 11.6317 72.2477 11.2444 71.25 11.2501H26.25C24.2609 11.2501 22.3532 12.0402 20.9467 13.4468C19.5402 14.8533 18.75 16.7609 18.75 18.7501V60.0001C18.75 60.9946 19.1451 61.9485 19.8484 62.6517C20.5516 63.355 21.5054 63.7501 22.5 63.7501C23.4946 63.7501 24.4484 63.355 25.1517 62.6517C25.8549 61.9485 26.25 60.9946 26.25 60.0001V18.7501H67.5V41.2501C67.5 42.2446 67.8951 43.1985 68.5984 43.9017C69.3016 44.605 70.2554 45.0001 71.25 45.0001H93.75V101.25H82.5C81.5054 101.25 80.5516 101.645 79.8484 102.348C79.1451 103.052 78.75 104.006 78.75 105C78.75 105.995 79.1451 106.948 79.8484 107.652C80.5516 108.355 81.5054 108.75 82.5 108.75H93.75C95.7391 108.75 97.6468 107.96 99.0533 106.553C100.46 105.147 101.25 103.239 101.25 101.25V41.2501C101.256 40.2524 100.868 39.2926 100.172 38.5782ZM75 24.0469L88.4531 37.5001H75V24.0469Z" fill="#979BAA"/>
<path fill-rule="evenodd" clip-rule="evenodd" d="M26.25 90C26.25 87.9289 27.9289 86.25 30 86.25H52.5C54.5711 86.25 56.25 87.9289 56.25 90C56.25 92.0711 54.5711 93.75 52.5 93.75H30C27.9289 93.75 26.25 92.0711 26.25 90Z" fill="#979BAA"/>
<path fill-rule="evenodd" clip-rule="evenodd" d="M26.25 82.5C24.2609 82.5 22.3532 83.2902 20.9467 84.6967C19.5402 86.1032 18.75 88.0109 18.75 90C18.75 91.9891 19.5402 93.8968 20.9467 95.3033C22.3532 96.7098 24.2609 97.5 26.25 97.5H35.625C37.6961 97.5 39.375 99.1789 39.375 101.25C39.375 103.321 37.6961 105 35.625 105H26.25C22.2718 105 18.4564 103.42 15.6434 100.607C12.8304 97.7936 11.25 93.9782 11.25 90C11.25 86.0218 12.8304 82.2064 15.6434 79.3934C18.4564 76.5804 22.2718 75 26.25 75H35.625C37.6961 75 39.375 76.6789 39.375 78.75C39.375 80.8211 37.6961 82.5 35.625 82.5H26.25Z" fill="#979BAA"/>
<path fill-rule="evenodd" clip-rule="evenodd" d="M43.125 78.75C43.125 76.6789 44.8039 75 46.875 75H56.25C60.2282 75 64.0436 76.5804 66.8566 79.3934C69.6696 82.2064 71.25 86.0218 71.25 90C71.25 93.9782 69.6696 97.7936 66.8566 100.607C64.0436 103.42 60.2282 105 56.25 105H46.875C44.8039 105 43.125 103.321 43.125 101.25C43.125 99.1789 44.8039 97.5 46.875 97.5H56.25C58.2391 97.5 60.1468 96.7098 61.5533 95.3033C62.9598 93.8968 63.75 91.9891 63.75 90C63.75 88.0109 62.9598 86.1032 61.5533 84.6967C60.1468 83.2902 58.2391 82.5 56.25 82.5H46.875C44.8039 82.5 43.125 80.8211 43.125 78.75Z" fill="#979BAA"/>
</svg>
