<svg width="76" height="76" viewBox="0 0 76 76" fill="none" xmlns="http://www.w3.org/2000/svg">
<g filter="url(#filter0_d_7518_77264)">
<rect x="14" y="8" width="48" height="48" rx="16" fill="#30323B"/>
<path fill-rule="evenodd" clip-rule="evenodd" d="M40.5333 41.7313L45.2 44.1313C45.2 42.5313 45.2 40.9313 45.2 39.8647C48.1333 37.7313 50 34.6647 50 31.0647C50 25.0647 44.6667 20.1313 38 20.1313C31.3333 20.1313 26 24.9313 26 31.0647C26 37.0647 31.3333 41.998 38 41.998C38.8 41.998 39.7333 41.8647 40.5333 41.7313Z" fill="white"/>
<path d="M40.5333 41.7313L45.2 44.1313C45.2 42.5313 45.2 40.9313 45.2 39.8647C48.1333 37.7313 50 34.6647 50 31.0647C50 25.0647 44.6667 20.1313 38 20.1313C31.3333 20.1313 26 24.9313 26 31.0647V31.0647C26 37.0647 31.3333 41.998 38 41.998C38.8 41.998 39.7333 41.8647 40.5333 41.7313" stroke="white" stroke-width="1.5" stroke-linecap="round" stroke-linejoin="round"/>
<path d="M32.8007 34.2612C35.734 37.1946 40.4007 37.1946 43.334 34.2612" stroke="#30323B" stroke-width="2" stroke-linecap="round" stroke-linejoin="round"/>
<path d="M40.6673 27.5947V28.9281" stroke="#30323B" stroke-width="2" stroke-linecap="round" stroke-linejoin="round"/>
<path d="M35.3343 27.5947V28.9281" stroke="#30323B" stroke-width="2" stroke-linecap="round" stroke-linejoin="round"/>
</g>
<defs>
<filter id="filter0_d_7518_77264" x="0" y="0" width="76" height="76" filterUnits="userSpaceOnUse" color-interpolation-filters="sRGB">
<feFlood flood-opacity="0" result="BackgroundImageFix"/>
<feColorMatrix in="SourceAlpha" type="matrix" values="0 0 0 0 0 0 0 0 0 0 0 0 0 0 0 0 0 0 127 0" result="hardAlpha"/>
<feOffset dy="6"/>
<feGaussianBlur stdDeviation="7"/>
<feColorMatrix type="matrix" values="0 0 0 0 0 0 0 0 0 0 0 0 0 0 0 0 0 0 0.24 0"/>
<feBlend mode="normal" in2="BackgroundImageFix" result="effect1_dropShadow_7518_77264"/>
<feBlend mode="normal" in="SourceGraphic" in2="effect1_dropShadow_7518_77264" result="shape"/>
</filter>
</defs>
</svg>
