<svg width="24" height="24" viewBox="0 0 24 24" fill="none" xmlns="http://www.w3.org/2000/svg">
<path d="M8.98316 14.6421C11.3696 14.6421 13.3042 12.7075 13.3042 10.321C13.3042 7.9346 11.3696 6 8.98316 6C6.59671 6 4.66211 7.9346 4.66211 10.321C4.66211 12.7075 6.59671 14.6421 8.98316 14.6421Z" stroke="white" stroke-width="1.5" stroke-miterlimit="10"/>
<path d="M14.584 6.15788C14.966 6.05429 15.3599 6.0012 15.7557 6C16.9017 6 18.0007 6.45525 18.8111 7.26561C19.6214 8.07596 20.0767 9.17503 20.0767 10.321C20.0767 11.4671 19.6214 12.5661 18.8111 13.3765C18.0007 14.1868 16.9017 14.6421 15.7557 14.6421" stroke="white" stroke-width="1.5" stroke-linecap="round" stroke-linejoin="round"/>
<path d="M3 17.7497C3.6747 16.7896 4.57056 16.006 5.61191 15.465C6.65326 14.924 7.80951 14.6416 8.98299 14.6416C10.1565 14.6416 11.3127 14.924 12.3541 15.465C13.3954 16.006 14.2913 16.7896 14.966 17.7497" stroke="white" stroke-width="1.5" stroke-linecap="round" stroke-linejoin="round"/>
<path d="M15.7559 14.6426C16.9294 14.6419 18.0859 14.9239 19.1274 15.4649C20.1688 16.0059 21.0646 16.7898 21.7388 17.7504" stroke="white" stroke-width="1.5" stroke-linecap="round" stroke-linejoin="round"/>
</svg>
