<svg width="24" height="24" viewBox="0 0 24 24" fill="none" xmlns="http://www.w3.org/2000/svg">
<path d="M6.00078 9.87443C3.56652 10.639 1.80078 12.9132 1.80078 15.5997C1.80078 18.9135 4.48707 21.5997 7.80078 21.5997C9.47922 21.5997 10.9967 20.9106 12.0856 19.7997C13.1466 18.7175 13.8008 17.235 13.8008 15.5997M18.0008 9.87443C20.4353 10.6388 22.2013 12.9131 22.2013 15.5999C22.2013 18.9136 19.515 21.5999 16.2013 21.5999C14.8503 21.5999 13.6037 21.1534 12.6008 20.4M18.0008 8.39963C18.0008 11.7133 15.3145 14.3996 12.0008 14.3996C8.68707 14.3996 6.00078 11.7133 6.00078 8.39963C6.00078 5.08592 8.68707 2.39963 12.0008 2.39963C15.3145 2.39963 18.0008 5.08592 18.0008 8.39963Z" stroke="#101116" stroke-width="2" stroke-linecap="round" stroke-linejoin="round"/>
</svg>
