<svg width="36" height="36" viewBox="0 0 36 36" fill="none" xmlns="http://www.w3.org/2000/svg">
<path fill-rule="evenodd" clip-rule="evenodd" d="M13.1403 25.216L13.0229 25.6253C12.6161 27.044 13.4368 28.5245 14.8566 28.9317V28.9317C16.2764 29.3388 17.757 28.5181 18.1641 27.0983L18.2815 26.689" fill="white"/>
<path d="M13.1403 25.216L13.0229 25.6253C12.6161 27.044 13.4368 28.5245 14.8566 28.9317V28.9317C16.2764 29.3388 17.757 28.5181 18.1641 27.0983L18.2815 26.689" stroke="#737684" stroke-width="3" stroke-linecap="round" stroke-linejoin="round"/>
<path d="M19.9657 9.41874C20.1134 9.32721 20.2978 9.29603 20.4781 9.34775C20.6585 9.39947 20.7983 9.52361 20.8751 9.67952L19.9657 9.41874Z" fill="#737684" stroke="#737684" stroke-width="3" stroke-linecap="round" stroke-linejoin="round"/>
<path fill-rule="evenodd" clip-rule="evenodd" d="M12.4824 14.2191V14.2191C13.2873 11.4121 16.2149 9.79019 19.0209 10.5948L21.0541 11.1778C23.8611 11.9827 25.483 14.9103 24.6784 17.7162V17.7162L23.779 20.853C23.6085 21.4474 23.6815 22.0861 23.9814 22.6272L24.4942 23.5522C24.7941 24.0933 24.8671 24.732 24.6966 25.3264V25.3264C24.3609 26.4972 23.1401 27.1739 21.9693 26.8382L9.94599 23.3906C8.77517 23.0549 8.09846 21.834 8.43418 20.6632V20.6632C8.60462 20.0688 9.00493 19.5659 9.54608 19.2659L10.4711 18.7532C11.0122 18.4532 11.4125 17.9502 11.583 17.3559L12.4824 14.2191Z" fill="#737684" stroke="#737684" stroke-width="3" stroke-linecap="round" stroke-linejoin="round"/>
</svg>
