<svg width="88" height="112" viewBox="0 0 88 112" fill="none" xmlns="http://www.w3.org/2000/svg">
<g clip-path="url(#clip0_1057_17453)">
<g filter="url(#filter0_ii_1057_17453)">
<path fill-rule="evenodd" clip-rule="evenodd" d="M0 12C0 5.37257 5.37258 0 12 0H76C82.6274 0 88 5.37258 88 12V82.2435C88 86.7575 85.4669 90.8896 81.4442 92.9375L49.4442 109.228C46.0236 110.97 41.9764 110.97 38.5558 109.228L6.55581 92.9375C2.53313 90.8896 0 86.7575 0 82.2435L0 12Z" fill="white"/>
<path fill-rule="evenodd" clip-rule="evenodd" d="M0 12C0 5.37257 5.37258 0 12 0H76C82.6274 0 88 5.37258 88 12V82.2435C88 86.7575 85.4669 90.8896 81.4442 92.9375L49.4442 109.228C46.0236 110.97 41.9764 110.97 38.5558 109.228L6.55581 92.9375C2.53313 90.8896 0 86.7575 0 82.2435L0 12Z" fill="url(#paint0_linear_1057_17453)" fill-opacity="0.2"/>
</g>
<g filter="url(#filter1_di_1057_17453)">
<path fill-rule="evenodd" clip-rule="evenodd" d="M8 14C8 10.6863 10.6863 8 14 8H74C77.3137 8 80 10.6863 80 14V79.5644C80 81.799 78.7582 83.8485 76.7774 84.8829L46.7774 100.55C45.0373 101.458 42.9627 101.458 41.2226 100.55L11.2226 84.8829C9.24182 83.8485 8 81.799 8 79.5645L8 14Z" fill="url(#paint1_linear_1057_17453)"/>
</g>
<g filter="url(#filter2_di_1057_17453)">
<path d="M42.1719 18.1202C42.8752 16.5351 45.1248 16.5351 45.8281 18.1202L47.2187 21.2543C47.5132 21.918 48.1443 22.37 48.8675 22.4351L52.2609 22.7406C54.0256 22.8994 54.7275 25.1048 53.3792 26.2544L50.9057 28.3634C50.337 28.8483 50.0861 29.6098 50.2552 30.3377L50.9933 33.5165C51.3889 35.22 49.5617 36.5749 48.0465 35.7017L44.9987 33.9452C44.3805 33.5889 43.6195 33.5889 43.0013 33.9452L39.9535 35.7017C38.4383 36.5749 36.6111 35.22 37.0067 33.5165L37.7448 30.3377C37.9139 29.6098 37.663 28.8483 37.0943 28.3634L34.6208 26.2544C33.2725 25.1048 33.9744 22.8994 35.7391 22.7406L39.1325 22.4351C39.8557 22.37 40.4868 21.918 40.7813 21.2543L42.1719 18.1202Z" fill="#F7E0FF"/>
</g>
<g filter="url(#filter3_di_1057_17453)">
<path d="M40.768 61.648C41.6267 61.7227 42.5413 61.7227 43.512 61.648C44.4827 61.5733 45.3787 61.368 46.2 61.032C47.0587 60.6587 47.7493 60.136 48.272 59.464C48.832 58.792 49.112 57.896 49.112 56.776C49.112 55.096 48.552 53.808 47.432 52.912C46.312 52.016 45.024 51.568 43.568 51.568C41.552 51.568 40.0213 52.24 38.976 53.584C37.968 54.8907 37.4827 56.552 37.52 58.568H29.96C30.0347 56.552 30.3893 54.7227 31.024 53.08C31.696 51.4 32.6107 49.9627 33.768 48.768C34.9627 47.5733 36.3813 46.6587 38.024 46.024C39.6667 45.352 41.496 45.016 43.512 45.016C45.08 45.016 46.648 45.2587 48.216 45.744C49.784 46.192 51.184 46.8827 52.416 47.816C53.6853 48.7493 54.712 49.888 55.496 51.232C56.28 52.576 56.672 54.1253 56.672 55.88C56.672 57.784 56.2053 59.464 55.272 60.92C54.376 62.376 53.0133 63.3653 51.184 63.888V64C53.3493 64.4853 55.048 65.5307 56.28 67.136C57.512 68.7413 58.128 70.664 58.128 72.904C58.128 74.9573 57.7173 76.7867 56.896 78.392C56.112 79.9973 55.048 81.3413 53.704 82.424C52.36 83.5067 50.8107 84.328 49.056 84.888C47.3013 85.448 45.472 85.728 43.568 85.728C41.3653 85.728 39.3493 85.4107 37.52 84.776C35.728 84.1413 34.1973 83.2267 32.928 82.032C31.6587 80.8 30.6693 79.3067 29.96 77.552C29.288 75.7973 28.9707 73.7813 29.008 71.504H36.568C36.6053 72.5493 36.7733 73.5573 37.072 74.528C37.3707 75.4613 37.8 76.2827 38.36 76.992C38.92 77.664 39.6107 78.2053 40.432 78.616C41.2907 79.0267 42.2987 79.232 43.456 79.232C45.248 79.232 46.76 78.6907 47.992 77.608C49.224 76.488 49.84 74.976 49.84 73.072C49.84 71.5787 49.5413 70.44 48.944 69.656C48.384 68.872 47.656 68.312 46.76 67.976C45.864 67.6027 44.8747 67.3973 43.792 67.36C42.7467 67.2853 41.7387 67.248 40.768 67.248V61.648Z" fill="#ECDFFF"/>
</g>
</g>
<defs>
<filter id="filter0_ii_1057_17453" x="0" y="0" width="89" height="111.535" filterUnits="userSpaceOnUse" color-interpolation-filters="sRGB">
<feFlood flood-opacity="0" result="BackgroundImageFix"/>
<feBlend mode="normal" in="SourceGraphic" in2="BackgroundImageFix" result="shape"/>
<feColorMatrix in="SourceAlpha" type="matrix" values="0 0 0 0 0 0 0 0 0 0 0 0 0 0 0 0 0 0 127 0" result="hardAlpha"/>
<feOffset/>
<feGaussianBlur stdDeviation="3"/>
<feComposite in2="hardAlpha" operator="arithmetic" k2="-1" k3="1"/>
<feColorMatrix type="matrix" values="0 0 0 0 0.81801 0 0 0 0 0.741811 0 0 0 0 0.880355 0 0 0 0.2 0"/>
<feBlend mode="normal" in2="shape" result="effect1_innerShadow_1057_17453"/>
<feColorMatrix in="SourceAlpha" type="matrix" values="0 0 0 0 0 0 0 0 0 0 0 0 0 0 0 0 0 0 127 0" result="hardAlpha"/>
<feOffset dx="1" dy="1"/>
<feGaussianBlur stdDeviation="3"/>
<feComposite in2="hardAlpha" operator="arithmetic" k2="-1" k3="1"/>
<feColorMatrix type="matrix" values="0 0 0 0 0 0 0 0 0 0 0 0 0 0 0 0 0 0 0.05 0"/>
<feBlend mode="normal" in2="effect1_innerShadow_1057_17453" result="effect2_innerShadow_1057_17453"/>
</filter>
<filter id="filter1_di_1057_17453" x="4" y="4" width="84" height="105.23" filterUnits="userSpaceOnUse" color-interpolation-filters="sRGB">
<feFlood flood-opacity="0" result="BackgroundImageFix"/>
<feColorMatrix in="SourceAlpha" type="matrix" values="0 0 0 0 0 0 0 0 0 0 0 0 0 0 0 0 0 0 127 0" result="hardAlpha"/>
<feOffset dx="2" dy="2"/>
<feGaussianBlur stdDeviation="3"/>
<feComposite in2="hardAlpha" operator="out"/>
<feColorMatrix type="matrix" values="0 0 0 0 0.302294 0 0 0 0 0.149554 0 0 0 0 0.503402 0 0 0 0.7 0"/>
<feBlend mode="normal" in2="BackgroundImageFix" result="effect1_dropShadow_1057_17453"/>
<feBlend mode="normal" in="SourceGraphic" in2="effect1_dropShadow_1057_17453" result="shape"/>
<feColorMatrix in="SourceAlpha" type="matrix" values="0 0 0 0 0 0 0 0 0 0 0 0 0 0 0 0 0 0 127 0" result="hardAlpha"/>
<feOffset dx="1" dy="1"/>
<feGaussianBlur stdDeviation="4"/>
<feComposite in2="hardAlpha" operator="arithmetic" k2="-1" k3="1"/>
<feColorMatrix type="matrix" values="0 0 0 0 1 0 0 0 0 1 0 0 0 0 1 0 0 0 0.6 0"/>
<feBlend mode="normal" in2="shape" result="effect2_innerShadow_1057_17453"/>
</filter>
<filter id="filter2_di_1057_17453" x="25.916" y="8.93164" width="36.168" height="35.043" filterUnits="userSpaceOnUse" color-interpolation-filters="sRGB">
<feFlood flood-opacity="0" result="BackgroundImageFix"/>
<feColorMatrix in="SourceAlpha" type="matrix" values="0 0 0 0 0 0 0 0 0 0 0 0 0 0 0 0 0 0 127 0" result="hardAlpha"/>
<feOffset/>
<feGaussianBlur stdDeviation="4"/>
<feComposite in2="hardAlpha" operator="out"/>
<feColorMatrix type="matrix" values="0 0 0 0 0.690419 0 0 0 0 0.620654 0 0 0 0 1 0 0 0 0.5 0"/>
<feBlend mode="normal" in2="BackgroundImageFix" result="effect1_dropShadow_1057_17453"/>
<feBlend mode="normal" in="SourceGraphic" in2="effect1_dropShadow_1057_17453" result="shape"/>
<feColorMatrix in="SourceAlpha" type="matrix" values="0 0 0 0 0 0 0 0 0 0 0 0 0 0 0 0 0 0 127 0" result="hardAlpha"/>
<feOffset dy="2"/>
<feGaussianBlur stdDeviation="3"/>
<feComposite in2="hardAlpha" operator="arithmetic" k2="-1" k3="1"/>
<feColorMatrix type="matrix" values="0 0 0 0 1 0 0 0 0 1 0 0 0 0 1 0 0 0 0.6 0"/>
<feBlend mode="normal" in2="shape" result="effect2_innerShadow_1057_17453"/>
</filter>
<filter id="filter3_di_1057_17453" x="20.9512" y="37.0156" width="45.1777" height="56.7129" filterUnits="userSpaceOnUse" color-interpolation-filters="sRGB">
<feFlood flood-opacity="0" result="BackgroundImageFix"/>
<feColorMatrix in="SourceAlpha" type="matrix" values="0 0 0 0 0 0 0 0 0 0 0 0 0 0 0 0 0 0 127 0" result="hardAlpha"/>
<feOffset/>
<feGaussianBlur stdDeviation="4"/>
<feComposite in2="hardAlpha" operator="out"/>
<feColorMatrix type="matrix" values="0 0 0 0 0.436347 0 0 0 0 0.309326 0 0 0 0 1 0 0 0 0.5 0"/>
<feBlend mode="normal" in2="BackgroundImageFix" result="effect1_dropShadow_1057_17453"/>
<feBlend mode="normal" in="SourceGraphic" in2="effect1_dropShadow_1057_17453" result="shape"/>
<feColorMatrix in="SourceAlpha" type="matrix" values="0 0 0 0 0 0 0 0 0 0 0 0 0 0 0 0 0 0 127 0" result="hardAlpha"/>
<feOffset dy="3"/>
<feGaussianBlur stdDeviation="3"/>
<feComposite in2="hardAlpha" operator="arithmetic" k2="-1" k3="1"/>
<feColorMatrix type="matrix" values="0 0 0 0 1 0 0 0 0 1 0 0 0 0 1 0 0 0 0.9 0"/>
<feBlend mode="normal" in2="shape" result="effect2_innerShadow_1057_17453"/>
</filter>
<linearGradient id="paint0_linear_1057_17453" x1="44" y1="0" x2="44" y2="112" gradientUnits="userSpaceOnUse">
<stop stop-color="#EACFFF"/>
<stop offset="1" stop-color="#8A7BFF"/>
</linearGradient>
<linearGradient id="paint1_linear_1057_17453" x1="18" y1="13" x2="62" y2="95.5" gradientUnits="userSpaceOnUse">
<stop stop-color="#EBC7FD"/>
<stop offset="1" stop-color="#A361FF"/>
</linearGradient>
<clipPath id="clip0_1057_17453">
<rect width="88" height="112" fill="white"/>
</clipPath>
</defs>
</svg>
