<svg width="88" height="112" viewBox="0 0 88 112" fill="none" xmlns="http://www.w3.org/2000/svg">
<g clip-path="url(#clip0_1057_17467)">
<g filter="url(#filter0_ii_1057_17467)">
<path fill-rule="evenodd" clip-rule="evenodd" d="M0 12C0 5.37257 5.37258 0 12 0H76C82.6274 0 88 5.37258 88 12V82.2435C88 86.7575 85.4669 90.8896 81.4442 92.9375L49.4442 109.228C46.0236 110.97 41.9764 110.97 38.5558 109.228L6.55581 92.9375C2.53313 90.8896 0 86.7575 0 82.2435L0 12Z" fill="white"/>
<path fill-rule="evenodd" clip-rule="evenodd" d="M0 12C0 5.37257 5.37258 0 12 0H76C82.6274 0 88 5.37258 88 12V82.2435C88 86.7575 85.4669 90.8896 81.4442 92.9375L49.4442 109.228C46.0236 110.97 41.9764 110.97 38.5558 109.228L6.55581 92.9375C2.53313 90.8896 0 86.7575 0 82.2435L0 12Z" fill="url(#paint0_linear_1057_17467)" fill-opacity="0.2"/>
</g>
<g filter="url(#filter1_di_1057_17467)">
<path fill-rule="evenodd" clip-rule="evenodd" d="M8 14C8 10.6863 10.6863 8 14 8H74C77.3137 8 80 10.6863 80 14V79.5644C80 81.799 78.7582 83.8485 76.7774 84.8829L46.7774 100.55C45.0373 101.458 42.9627 101.458 41.2226 100.55L11.2226 84.8829C9.24182 83.8485 8 81.799 8 79.5645L8 14Z" fill="url(#paint1_linear_1057_17467)"/>
</g>
<g filter="url(#filter2_di_1057_17467)">
<path d="M42.1719 20.1202C42.8752 18.5351 45.1248 18.5351 45.8281 20.1202L47.2187 23.2543C47.5132 23.918 48.1443 24.37 48.8675 24.4351L52.2609 24.7406C54.0256 24.8994 54.7275 27.1048 53.3792 28.2544L50.9057 30.3634C50.337 30.8483 50.0861 31.6098 50.2552 32.3377L50.9933 35.5165C51.3889 37.22 49.5617 38.5749 48.0465 37.7017L44.9987 35.9452C44.3805 35.5889 43.6195 35.5889 43.0013 35.9452L39.9535 37.7017C38.4383 38.5749 36.6111 37.22 37.0067 35.5165L37.7448 32.3377C37.9139 31.6098 37.663 30.8483 37.0943 30.3634L34.6208 28.2544C33.2725 27.1048 33.9744 24.8994 35.7391 24.7406L39.1325 24.4351C39.8557 24.37 40.4868 23.918 40.7813 23.2543L42.1719 20.1202Z" fill="#FFE8E8"/>
</g>
<g filter="url(#filter3_di_1057_17467)">
<path d="M56 52.352H39.816L38.248 61.256L38.36 61.368C39.4427 60.2853 40.6 59.52 41.832 59.072C43.064 58.5867 44.464 58.344 46.032 58.344C47.9733 58.344 49.6907 58.6987 51.184 59.408C52.6773 60.1173 53.928 61.0693 54.936 62.264C55.9813 63.4587 56.7653 64.8773 57.288 66.52C57.848 68.1253 58.128 69.8427 58.128 71.672C58.128 73.688 57.736 75.5733 56.952 77.328C56.168 79.0453 55.104 80.5387 53.76 81.808C52.4533 83.0773 50.9227 84.0667 49.168 84.776C47.4133 85.448 45.5467 85.7653 43.568 85.728C41.664 85.728 39.8347 85.4853 38.08 85C36.3627 84.4773 34.832 83.6933 33.488 82.648C32.144 81.6027 31.0613 80.3147 30.24 78.784C29.456 77.216 29.0453 75.4053 29.008 73.352H36.96C37.1467 75.144 37.8187 76.5813 38.976 77.664C40.1333 78.7093 41.608 79.232 43.4 79.232C44.4453 79.232 45.3787 79.0267 46.2 78.616C47.0587 78.168 47.768 77.608 48.328 76.936C48.9253 76.2267 49.3733 75.424 49.672 74.528C50.008 73.5947 50.176 72.6427 50.176 71.672C50.176 70.664 50.0267 69.712 49.728 68.816C49.4293 67.92 48.9813 67.136 48.384 66.464C47.7867 65.792 47.0773 65.2693 46.256 64.896C45.4347 64.5227 44.4827 64.336 43.4 64.336C41.9813 64.336 40.824 64.5973 39.928 65.12C39.032 65.6053 38.192 66.3893 37.408 67.472H30.24L34.104 45.8H56V52.352Z" fill="#FFE8E8"/>
</g>
</g>
<defs>
<filter id="filter0_ii_1057_17467" x="0" y="0" width="89" height="111.535" filterUnits="userSpaceOnUse" color-interpolation-filters="sRGB">
<feFlood flood-opacity="0" result="BackgroundImageFix"/>
<feBlend mode="normal" in="SourceGraphic" in2="BackgroundImageFix" result="shape"/>
<feColorMatrix in="SourceAlpha" type="matrix" values="0 0 0 0 0 0 0 0 0 0 0 0 0 0 0 0 0 0 127 0" result="hardAlpha"/>
<feOffset/>
<feGaussianBlur stdDeviation="3"/>
<feComposite in2="hardAlpha" operator="arithmetic" k2="-1" k3="1"/>
<feColorMatrix type="matrix" values="0 0 0 0 0.904362 0 0 0 0 0.44516 0 0 0 0 0.44516 0 0 0 0.2 0"/>
<feBlend mode="normal" in2="shape" result="effect1_innerShadow_1057_17467"/>
<feColorMatrix in="SourceAlpha" type="matrix" values="0 0 0 0 0 0 0 0 0 0 0 0 0 0 0 0 0 0 127 0" result="hardAlpha"/>
<feOffset dx="1" dy="1"/>
<feGaussianBlur stdDeviation="3"/>
<feComposite in2="hardAlpha" operator="arithmetic" k2="-1" k3="1"/>
<feColorMatrix type="matrix" values="0 0 0 0 0 0 0 0 0 0 0 0 0 0 0 0 0 0 0.05 0"/>
<feBlend mode="normal" in2="effect1_innerShadow_1057_17467" result="effect2_innerShadow_1057_17467"/>
</filter>
<filter id="filter1_di_1057_17467" x="4" y="4" width="84" height="105.23" filterUnits="userSpaceOnUse" color-interpolation-filters="sRGB">
<feFlood flood-opacity="0" result="BackgroundImageFix"/>
<feColorMatrix in="SourceAlpha" type="matrix" values="0 0 0 0 0 0 0 0 0 0 0 0 0 0 0 0 0 0 127 0" result="hardAlpha"/>
<feOffset dx="2" dy="2"/>
<feGaussianBlur stdDeviation="3"/>
<feComposite in2="hardAlpha" operator="out"/>
<feColorMatrix type="matrix" values="0 0 0 0 0.803223 0 0 0 0 0.242209 0 0 0 0 0.242209 0 0 0 0.7 0"/>
<feBlend mode="normal" in2="BackgroundImageFix" result="effect1_dropShadow_1057_17467"/>
<feBlend mode="normal" in="SourceGraphic" in2="effect1_dropShadow_1057_17467" result="shape"/>
<feColorMatrix in="SourceAlpha" type="matrix" values="0 0 0 0 0 0 0 0 0 0 0 0 0 0 0 0 0 0 127 0" result="hardAlpha"/>
<feOffset dx="1" dy="1"/>
<feGaussianBlur stdDeviation="4"/>
<feComposite in2="hardAlpha" operator="arithmetic" k2="-1" k3="1"/>
<feColorMatrix type="matrix" values="0 0 0 0 1 0 0 0 0 1 0 0 0 0 1 0 0 0 0.6 0"/>
<feBlend mode="normal" in2="shape" result="effect2_innerShadow_1057_17467"/>
</filter>
<filter id="filter2_di_1057_17467" x="25.916" y="10.9316" width="36.168" height="35.043" filterUnits="userSpaceOnUse" color-interpolation-filters="sRGB">
<feFlood flood-opacity="0" result="BackgroundImageFix"/>
<feColorMatrix in="SourceAlpha" type="matrix" values="0 0 0 0 0 0 0 0 0 0 0 0 0 0 0 0 0 0 127 0" result="hardAlpha"/>
<feOffset/>
<feGaussianBlur stdDeviation="4"/>
<feComposite in2="hardAlpha" operator="out"/>
<feColorMatrix type="matrix" values="0 0 0 0 0.984314 0 0 0 0 0.588235 0 0 0 0 0.588235 0 0 0 0.5 0"/>
<feBlend mode="normal" in2="BackgroundImageFix" result="effect1_dropShadow_1057_17467"/>
<feBlend mode="normal" in="SourceGraphic" in2="effect1_dropShadow_1057_17467" result="shape"/>
<feColorMatrix in="SourceAlpha" type="matrix" values="0 0 0 0 0 0 0 0 0 0 0 0 0 0 0 0 0 0 127 0" result="hardAlpha"/>
<feOffset dy="2"/>
<feGaussianBlur stdDeviation="4"/>
<feComposite in2="hardAlpha" operator="arithmetic" k2="-1" k3="1"/>
<feColorMatrix type="matrix" values="0 0 0 0 1 0 0 0 0 1 0 0 0 0 1 0 0 0 0.6 0"/>
<feBlend mode="normal" in2="shape" result="effect2_innerShadow_1057_17467"/>
</filter>
<filter id="filter3_di_1057_17467" x="21.0078" y="37.8008" width="45.1211" height="55.9824" filterUnits="userSpaceOnUse" color-interpolation-filters="sRGB">
<feFlood flood-opacity="0" result="BackgroundImageFix"/>
<feColorMatrix in="SourceAlpha" type="matrix" values="0 0 0 0 0 0 0 0 0 0 0 0 0 0 0 0 0 0 127 0" result="hardAlpha"/>
<feOffset/>
<feGaussianBlur stdDeviation="4"/>
<feComposite in2="hardAlpha" operator="out"/>
<feColorMatrix type="matrix" values="0 0 0 0 0.984314 0 0 0 0 0.588235 0 0 0 0 0.588235 0 0 0 1 0"/>
<feBlend mode="normal" in2="BackgroundImageFix" result="effect1_dropShadow_1057_17467"/>
<feBlend mode="normal" in="SourceGraphic" in2="effect1_dropShadow_1057_17467" result="shape"/>
<feColorMatrix in="SourceAlpha" type="matrix" values="0 0 0 0 0 0 0 0 0 0 0 0 0 0 0 0 0 0 127 0" result="hardAlpha"/>
<feOffset dy="3"/>
<feGaussianBlur stdDeviation="3"/>
<feComposite in2="hardAlpha" operator="arithmetic" k2="-1" k3="1"/>
<feColorMatrix type="matrix" values="0 0 0 0 1 0 0 0 0 1 0 0 0 0 1 0 0 0 0.9 0"/>
<feBlend mode="normal" in2="shape" result="effect2_innerShadow_1057_17467"/>
</filter>
<linearGradient id="paint0_linear_1057_17467" x1="44" y1="0" x2="44" y2="112" gradientUnits="userSpaceOnUse">
<stop stop-color="#FFD9D9"/>
<stop offset="1" stop-color="#FF9090"/>
</linearGradient>
<linearGradient id="paint1_linear_1057_17467" x1="18" y1="13" x2="62" y2="95.5" gradientUnits="userSpaceOnUse">
<stop stop-color="#FED7D7"/>
<stop offset="1" stop-color="#FB9696"/>
</linearGradient>
<clipPath id="clip0_1057_17467">
<rect width="88" height="112" fill="white"/>
</clipPath>
</defs>
</svg>
