<svg width="56" height="56" viewBox="0 0 56 56" fill="none" xmlns="http://www.w3.org/2000/svg">
<g filter="url(#filter0_bi_6961_60045)">
<path d="M21.7118 20.0911C17.81 20.0911 14.068 21.6411 11.309 24.4001C8.54999 27.1591 7 30.9011 7 34.8029C7 38.7047 8.54999 42.4467 11.309 45.2057C14.068 47.9647 17.81 49.5147 21.7118 49.5147C25.6137 49.5147 29.3557 47.9647 32.1147 45.2057C34.8737 42.4467 36.4237 38.7047 36.4237 34.8029C36.4237 30.9011 34.8737 27.1591 32.1147 24.4001C29.3557 21.6411 25.6137 20.0911 21.7118 20.0911Z" fill="#3385FF"/>
<path d="M21.7118 20.0911C17.81 20.0911 14.068 21.6411 11.309 24.4001C8.54999 27.1591 7 30.9011 7 34.8029C7 38.7047 8.54999 42.4467 11.309 45.2057C14.068 47.9647 17.81 49.5147 21.7118 49.5147C25.6137 49.5147 29.3557 47.9647 32.1147 45.2057C34.8737 42.4467 36.4237 38.7047 36.4237 34.8029C36.4237 30.9011 34.8737 27.1591 32.1147 24.4001C29.3557 21.6411 25.6137 20.0911 21.7118 20.0911Z" stroke="url(#paint0_linear_6961_60045)" stroke-width="0.4"/>
</g>
<g filter="url(#filter1_bi_6961_60045)">
<path d="M30.6906 7.92105C25.8133 7.92105 21.1358 9.85854 17.687 13.3073C14.2383 16.7561 12.3008 21.4336 12.3008 26.3108C12.3008 31.1881 14.2383 35.8656 17.687 39.3144C21.1358 42.7631 25.8133 44.7006 30.6906 44.7006C35.5678 44.7006 40.2454 42.7631 43.6941 39.3144C47.1429 35.8656 49.0804 31.1881 49.0804 26.3108C49.0804 21.4336 47.1429 16.7561 43.6941 13.3073C40.2454 9.85854 35.5678 7.92105 30.6906 7.92105Z" fill="#C9DBFA" fill-opacity="0.8"/>
<path d="M30.6906 7.92105C25.8133 7.92105 21.1358 9.85854 17.687 13.3073C14.2383 16.7561 12.3008 21.4336 12.3008 26.3108C12.3008 31.1881 14.2383 35.8656 17.687 39.3144C21.1358 42.7631 25.8133 44.7006 30.6906 44.7006C35.5678 44.7006 40.2454 42.7631 43.6941 39.3144C47.1429 35.8656 49.0804 31.1881 49.0804 26.3108C49.0804 21.4336 47.1429 16.7561 43.6941 13.3073C40.2454 9.85854 35.5678 7.92105 30.6906 7.92105Z" stroke="url(#paint1_linear_6961_60045)" stroke-width="0.4"/>
</g>
<path d="M24.1094 22.9996L27.6202 31.4847L31.131 22.9996L34.6418 31.4847L38.1527 22.9996" stroke="white" stroke-width="2.5" stroke-linecap="round" stroke-linejoin="round"/>
<path d="M37.166 27.4656L38.9214 27.4656" stroke="white" stroke-width="2.5" stroke-linecap="round" stroke-linejoin="round"/>
<path d="M24 27.4656L25.7554 27.4656" stroke="white" stroke-width="2.5" stroke-linecap="round" stroke-linejoin="round"/>
<defs>
<filter id="filter0_bi_6961_60045" x="-1.2002" y="11.8911" width="45.8242" height="45.8237" filterUnits="userSpaceOnUse" color-interpolation-filters="sRGB">
<feFlood flood-opacity="0" result="BackgroundImageFix"/>
<feGaussianBlur in="BackgroundImageFix" stdDeviation="4"/>
<feComposite in2="SourceAlpha" operator="in" result="effect1_backgroundBlur_6961_60045"/>
<feBlend mode="normal" in="SourceGraphic" in2="effect1_backgroundBlur_6961_60045" result="shape"/>
<feColorMatrix in="SourceAlpha" type="matrix" values="0 0 0 0 0 0 0 0 0 0 0 0 0 0 0 0 0 0 127 0" result="hardAlpha"/>
<feOffset dy="2"/>
<feGaussianBlur stdDeviation="2"/>
<feComposite in2="hardAlpha" operator="arithmetic" k2="-1" k3="1"/>
<feColorMatrix type="matrix" values="0 0 0 0 1 0 0 0 0 1 0 0 0 0 1 0 0 0 0.4 0"/>
<feBlend mode="normal" in2="shape" result="effect2_innerShadow_6961_60045"/>
</filter>
<filter id="filter1_bi_6961_60045" x="-15.8994" y="-20.279" width="93.1797" height="93.1796" filterUnits="userSpaceOnUse" color-interpolation-filters="sRGB">
<feFlood flood-opacity="0" result="BackgroundImageFix"/>
<feGaussianBlur in="BackgroundImageFix" stdDeviation="14"/>
<feComposite in2="SourceAlpha" operator="in" result="effect1_backgroundBlur_6961_60045"/>
<feBlend mode="normal" in="SourceGraphic" in2="effect1_backgroundBlur_6961_60045" result="shape"/>
<feColorMatrix in="SourceAlpha" type="matrix" values="0 0 0 0 0 0 0 0 0 0 0 0 0 0 0 0 0 0 127 0" result="hardAlpha"/>
<feOffset dy="2"/>
<feGaussianBlur stdDeviation="1"/>
<feComposite in2="hardAlpha" operator="arithmetic" k2="-1" k3="1"/>
<feColorMatrix type="matrix" values="0 0 0 0 1 0 0 0 0 1 0 0 0 0 1 0 0 0 0.4 0"/>
<feBlend mode="normal" in2="shape" result="effect2_innerShadow_6961_60045"/>
</filter>
<linearGradient id="paint0_linear_6961_60045" x1="21.7118" y1="20.0911" x2="21.7118" y2="49.5147" gradientUnits="userSpaceOnUse">
<stop stop-color="white" stop-opacity="0.5"/>
<stop offset="1" stop-color="white"/>
</linearGradient>
<linearGradient id="paint1_linear_6961_60045" x1="30.6906" y1="7.92105" x2="30.6906" y2="44.7006" gradientUnits="userSpaceOnUse">
<stop stop-color="white" stop-opacity="0.5"/>
<stop offset="1" stop-color="white"/>
</linearGradient>
</defs>
</svg>
