<svg width="20" height="20" viewBox="0 0 20 20" fill="none" xmlns="http://www.w3.org/2000/svg">
<g clip-path="url(#clip0_6251_52966)">
<path d="M3.5 8.13382C3.5 7.86703 3.63579 7.61674 3.86441 7.46213L9.49775 3.65251C9.79844 3.44916 10.2016 3.44916 10.5023 3.65251L16.1356 7.46213C16.3642 7.61674 16.5 7.86703 16.5 8.13382V15.2637C16.5 15.9465 15.918 16.5 15.2 16.5H4.8C4.08203 16.5 3.5 15.9465 3.5 15.2637V8.13382Z" stroke="#5A5E6C" stroke-width="1.2"/>
<path d="M11.625 10.8125C11.625 11.71 10.8975 12.4375 10 12.4375C9.10254 12.4375 8.375 11.71 8.375 10.8125C8.375 9.91504 9.10254 9.1875 10 9.1875C10.8975 9.1875 11.625 9.91504 11.625 10.8125Z" stroke="#5A5E6C" stroke-width="1.2"/>
</g>
<defs>
<clipPath id="clip0_6251_52966">
<rect width="20" height="20" fill="white"/>
</clipPath>
</defs>
</svg>
