<svg width="20" height="20" viewBox="0 0 20 20" fill="none" xmlns="http://www.w3.org/2000/svg">
<path fill-rule="evenodd" clip-rule="evenodd" d="M1.79366 10.4468C1.62607 10.173 1.62607 9.82663 1.79366 9.55291C3.5575 6.66048 6.77963 4.1665 10.0018 4.1665C13.2239 4.1665 16.4451 6.66048 18.2089 9.55202C18.3765 9.82663 18.3765 10.1739 18.2089 10.4486C16.4451 13.3392 13.2239 15.8332 10.0018 15.8332C6.77963 15.8332 3.5575 13.3392 1.79366 10.4468Z" stroke="#979BAA" stroke-width="1.5" stroke-linecap="round" stroke-linejoin="round"/>
<path d="M11.9651 8.09646C13.0503 9.14826 13.0503 10.8525 11.9651 11.9043C10.88 12.9561 9.12168 12.9561 8.03652 11.9043C6.95137 10.8525 6.95137 9.14826 8.03652 8.09646C9.12168 7.04467 10.8809 7.04467 11.9651 8.09646" stroke="#979BAA" stroke-width="1.5" stroke-linecap="round" stroke-linejoin="round"/>
</svg>
