<svg width="32" height="32" viewBox="0 0 32 32" fill="none" xmlns="http://www.w3.org/2000/svg">
<path fill-rule="evenodd" clip-rule="evenodd" d="M12.074 21.8368L11.979 22.1678C11.6501 23.315 12.3137 24.5121 13.4618 24.8413C14.6098 25.1705 15.807 24.5069 16.1361 23.3589L16.2311 23.0279" fill="white"/>
<path d="M12.074 21.8368L11.979 22.1678C11.6501 23.315 12.3137 24.5121 13.4618 24.8413V24.8413C14.6098 25.1705 15.807 24.5069 16.1361 23.3589L16.2311 23.0279" stroke="#737684" stroke-width="2" stroke-linecap="round" stroke-linejoin="round"/>
<path d="M17.2092 9.17178C17.3629 8.86349 17.719 8.69881 18.0623 8.79726C18.4057 8.89571 18.6204 9.22405 18.5874 9.56699L17.2092 9.17178Z" fill="#737684" stroke="#737684" stroke-width="2" stroke-linecap="round" stroke-linejoin="round"/>
<path fill-rule="evenodd" clip-rule="evenodd" d="M11.5381 12.9396C12.189 10.6698 14.5562 9.35839 16.8251 10.009L18.4691 10.4804C20.7389 11.1312 22.0503 13.4985 21.3998 15.7673L20.6725 18.3037C20.5346 18.7843 20.5936 19.3007 20.8362 19.7383L21.2508 20.4863C21.4933 20.9238 21.5523 21.4403 21.4145 21.9209C21.143 22.8676 20.1559 23.4148 19.2092 23.1433L9.48721 20.3556C8.5405 20.0841 7.99331 19.097 8.26478 18.1502C8.40259 17.6696 8.72628 17.2629 9.16385 17.0204L9.91179 16.6058C10.3494 16.3632 10.673 15.9565 10.8109 15.4759L11.5381 12.9396Z" fill="#737684" stroke="#737684" stroke-width="2" stroke-linecap="round" stroke-linejoin="round"/>
</svg>
