<svg width="32" height="32" viewBox="0 0 32 32" fill="none" xmlns="http://www.w3.org/2000/svg">
<path d="M15.9503 3.52663C14.0011 3.52266 12.0984 4.12149 10.5028 5.24108C8.9072 6.36067 7.69683 7.94624 7.03752 9.78054C6.3782 11.6148 6.3022 13.6081 6.81992 15.4873C7.33764 17.3665 8.42376 19.0396 9.92945 20.2775V28.4701C9.92858 28.6169 9.96575 28.7614 10.0374 28.8895C10.109 29.0177 10.2125 29.1251 10.338 29.2012C10.4625 29.2795 10.6049 29.3245 10.7517 29.332C10.8985 29.3396 11.0448 29.3093 11.1766 29.2442L15.9503 26.8467L20.724 29.2442C20.846 29.2982 20.9776 29.3274 21.111 29.3302C21.3391 29.3302 21.5579 29.2396 21.7192 29.0783C21.8805 28.917 21.9711 28.6982 21.9711 28.4701V20.2775C23.4768 19.0396 24.563 17.3665 25.0807 15.4873C25.5984 13.6081 25.5224 11.6148 24.8631 9.78054C24.2038 7.94624 22.9934 6.36067 21.3978 5.24108C19.8022 4.12149 17.8995 3.52266 15.9503 3.52663ZM15.9503 20.729C14.4193 20.729 12.9226 20.275 11.6496 19.4244C10.3766 18.5738 9.38437 17.3648 8.79847 15.9503C8.21256 14.5358 8.05926 12.9794 8.35796 11.4777C8.65665 9.97612 9.39391 8.59679 10.4765 7.51418C11.5591 6.43157 12.9385 5.69431 14.4401 5.39561C15.9417 5.09692 17.4982 5.25022 18.9127 5.83613C20.3272 6.42203 21.5362 7.41423 22.3868 8.68724C23.2374 9.96026 23.6914 11.4569 23.6914 12.988C23.6885 15.0401 22.872 17.0075 21.4209 18.4586C19.9698 19.9097 18.0025 20.7262 15.9503 20.729Z" fill="#308AF2"/>
<circle cx="15.6549" cy="12.9881" r="9.82145" fill="#308AF2" stroke="white"/>
<path d="M15.6539 15.4679L17.3054 16.3739C17.6271 16.5504 18.003 16.2654 17.9414 15.8912L17.6262 13.9708L18.9625 12.612C19.2225 12.3471 19.0792 11.8855 18.7198 11.8308L16.8735 11.5506L16.0482 9.803C15.8874 9.46231 15.4232 9.46231 15.2624 9.803L14.4371 11.5506L12.5898 11.8317C12.2305 11.8864 12.0871 12.348 12.3472 12.6129L13.6835 13.9718L13.3683 15.8921C13.3067 16.2664 13.6826 16.5514 14.0042 16.3748L15.6558 15.4689H15.6539V15.4679Z" fill="white" stroke="white" stroke-width="0.5" stroke-linecap="round" stroke-linejoin="round"/>
</svg>
