<svg width="32" height="32" viewBox="0 0 32 32" fill="none" xmlns="http://www.w3.org/2000/svg">
<path fill-rule="evenodd" clip-rule="evenodd" d="M6.60548 8.19281C7.63378 7.15329 9.02826 6.56932 10.4823 6.56932C11.9363 6.56932 13.3308 7.15329 14.3591 8.19281L15.9657 9.81609L17.5724 8.19281C18.0782 7.66321 18.6833 7.24078 19.3523 6.95018C20.0213 6.65957 20.7408 6.50661 21.4689 6.50021C22.197 6.49381 22.9191 6.63411 23.5929 6.91291C24.2668 7.19172 24.8791 7.60345 25.3939 8.12408C25.9088 8.64471 26.316 9.26382 26.5917 9.94527C26.8674 10.6267 27.0061 11.3569 26.9998 12.0931C26.9935 12.8294 26.8422 13.557 26.5548 14.2335C26.2674 14.91 25.8497 15.5219 25.326 16.0334L15.9657 25.5L6.60548 16.0334C5.57749 14.9935 5 13.5834 5 12.1131C5 10.6428 5.57749 9.23264 6.60548 8.19281Z" fill="#f60" fill-opacity="1" stroke="#f60" stroke-width="2" stroke-linejoin="round"/>
</svg>
