<svg width="32" height="32" viewBox="0 0 32 32" fill="none" xmlns="http://www.w3.org/2000/svg">
<path fill-rule="evenodd" clip-rule="evenodd" d="M11.0921 11.4677L14.2388 5.8093C14.2388 5.8093 14.7507 3.92372 16.7985 4.67818C18.8081 5.41861 19.0646 9.12569 18.5358 11.3433C18.5207 11.4069 18.5687 11.4677 18.6341 11.4677H23.3853C24.1113 11.4677 24.8526 11.514 25.4999 11.8427C26.8771 12.5421 28.4292 14.1487 27.8905 17.1263L27.2377 22.8985C27.1051 24.0708 26.8747 25.2972 26.08 26.1692C25.3216 27.0014 24.1839 27.5001 21.9178 27.5001L10.2891 27.5001L10.2891 12.0115C10.7484 11.8251 10.9608 11.6129 11.0921 11.4677ZM8.78906 12.346C8.4008 12.3869 7.94628 12.4109 7.41292 12.4109C4.68258 12.4109 4 14.9258 4 16.1832V22.7847C4 26.557 6.27528 27.5001 7.41292 27.5001L8.78906 27.5001L8.78906 12.346Z" fill="#308AF2"/>
</svg>
