<svg width="10" height="10" viewBox="0 0 10 10" fill="none" xmlns="http://www.w3.org/2000/svg">
<path d="M9.07422 4.46489L3.44922 1.0313C3.35552 0.971922 3.24732 0.939428 3.13641 0.937361C3.0255 0.935294 2.91616 0.963736 2.82032 1.01958C2.72305 1.07294 2.64197 1.15153 2.58561 1.24708C2.52924 1.34263 2.49967 1.45161 2.5 1.56255V8.43755C2.49967 8.54849 2.52924 8.65746 2.58561 8.75301C2.64197 8.84856 2.72305 8.92716 2.82032 8.98052C2.91616 9.03636 3.0255 9.0648 3.13641 9.06274C3.24732 9.06067 3.35552 9.02817 3.44922 8.9688L9.07422 5.5352C9.16642 5.47958 9.24268 5.40109 9.29562 5.30733C9.34855 5.21357 9.37637 5.10772 9.37637 5.00005C9.37637 4.89238 9.34855 4.78653 9.29562 4.69277C9.24268 4.59901 9.16642 4.52051 9.07422 4.46489Z" fill="white"/>
</svg>
