<svg width="56" height="56" viewBox="0 0 56 56" fill="none" xmlns="http://www.w3.org/2000/svg">
<rect x="9.625" y="11.375" width="33.25" height="35.875" rx="6" fill="#308AF2"/>
<mask id="path-2-outside-1_6961_60070" maskUnits="userSpaceOnUse" x="27" y="5.125" width="23" height="28" fill="black">
<rect fill="white" x="27" y="5.125" width="23" height="28"/>
<path fill-rule="evenodd" clip-rule="evenodd" d="M31.7908 6.125C29.7714 6.125 28 7.59224 28 9.56073V31.7076C28 31.9353 28.1165 32.1472 28.3092 32.2699C28.5018 32.3925 28.7439 32.4089 28.9514 32.3134L38.5121 27.9126L48.048 32.3131C48.2555 32.4089 48.4978 32.3927 48.6906 32.2701C48.8833 32.1474 49 31.9354 49 31.7076V9.56073C49 7.59224 47.2286 6.125 45.2092 6.125H31.7908Z"/>
</mask>
<path fill-rule="evenodd" clip-rule="evenodd" d="M31.7908 6.125C29.7714 6.125 28 7.59224 28 9.56073V31.7076C28 31.9353 28.1165 32.1472 28.3092 32.2699C28.5018 32.3925 28.7439 32.4089 28.9514 32.3134L38.5121 27.9126L48.048 32.3131C48.2555 32.4089 48.4978 32.3927 48.6906 32.2701C48.8833 32.1474 49 31.9354 49 31.7076V9.56073C49 7.59224 47.2286 6.125 45.2092 6.125H31.7908Z" fill="#3385FF"/>
<path d="M28.3092 32.2699L28.0943 32.6073H28.0943L28.3092 32.2699ZM28.9514 32.3134L28.7842 31.9501H28.7842L28.9514 32.3134ZM38.5121 27.9126L38.6797 27.5494C38.5735 27.5004 38.4511 27.5003 38.3449 27.5492L38.5121 27.9126ZM48.048 32.3131L48.2156 31.9499L48.2156 31.9499L48.048 32.3131ZM48.6906 32.2701L48.4759 31.9325H48.4759L48.6906 32.2701ZM28.4 9.56073C28.4 7.85908 29.9434 6.525 31.7908 6.525V5.725C29.5994 5.725 27.6 7.32541 27.6 9.56073H28.4ZM28.4 31.7076V9.56073H27.6V31.7076H28.4ZM28.524 31.9325C28.4463 31.883 28.4 31.7981 28.4 31.7076H27.6C27.6 32.0725 27.7868 32.4115 28.0943 32.6073L28.524 31.9325ZM28.7842 31.9501C28.7001 31.9888 28.6019 31.9821 28.524 31.9325L28.0943 32.6073C28.4017 32.803 28.7877 32.8291 29.1187 32.6768L28.7842 31.9501ZM38.3449 27.5492L28.7842 31.9501L29.1187 32.6768L38.6794 28.2759L38.3449 27.5492ZM48.2156 31.9499L38.6797 27.5494L38.3445 28.2758L47.8804 32.6763L48.2156 31.9499ZM48.4759 31.9325C48.398 31.9821 48.2997 31.9888 48.2156 31.9499L47.8804 32.6763C48.2113 32.8291 48.5976 32.8032 48.9052 32.6076L48.4759 31.9325ZM48.6 31.7076C48.6 31.7981 48.5537 31.8831 48.4759 31.9325L48.9052 32.6076C49.213 32.4118 49.4 32.0727 49.4 31.7076H48.6ZM48.6 9.56073V31.7076H49.4V9.56073H48.6ZM45.2092 6.525C47.0566 6.525 48.6 7.85908 48.6 9.56073H49.4C49.4 7.32541 47.4006 5.725 45.2092 5.725V6.525ZM31.7908 6.525H45.2092V5.725H31.7908V6.525Z" fill="url(#paint0_linear_6961_60070)" mask="url(#path-2-outside-1_6961_60070)"/>
<g filter="url(#filter0_bi_6961_60070)">
<mask id="path-4-outside-2_6961_60070" maskUnits="userSpaceOnUse" x="27" y="5.125" width="23" height="28" fill="black">
<rect fill="white" x="27" y="5.125" width="23" height="28"/>
<path fill-rule="evenodd" clip-rule="evenodd" d="M31.7908 6.125C29.7714 6.125 28 7.59224 28 9.56073V31.7076C28 31.9353 28.1165 32.1472 28.3092 32.2699C28.5018 32.3925 28.7439 32.4089 28.9514 32.3134L38.5121 27.9126L48.048 32.3131C48.2555 32.4089 48.4978 32.3927 48.6906 32.2701C48.8833 32.1474 49 31.9354 49 31.7076V9.56073C49 7.59224 47.2286 6.125 45.2092 6.125H31.7908Z"/>
</mask>
<path fill-rule="evenodd" clip-rule="evenodd" d="M31.7908 6.125C29.7714 6.125 28 7.59224 28 9.56073V31.7076C28 31.9353 28.1165 32.1472 28.3092 32.2699C28.5018 32.3925 28.7439 32.4089 28.9514 32.3134L38.5121 27.9126L48.048 32.3131C48.2555 32.4089 48.4978 32.3927 48.6906 32.2701C48.8833 32.1474 49 31.9354 49 31.7076V9.56073C49 7.59224 47.2286 6.125 45.2092 6.125H31.7908Z" fill="white" fill-opacity="0.6"/>
<path d="M28.3092 32.2699L28.524 31.9325L28.524 31.9325L28.3092 32.2699ZM28.9514 32.3134L29.1187 32.6768L29.1187 32.6768L28.9514 32.3134ZM38.5121 27.9126L38.6797 27.5494C38.5735 27.5004 38.4511 27.5003 38.3449 27.5492L38.5121 27.9126ZM48.048 32.3131L48.2156 31.9499L48.2156 31.9499L48.048 32.3131ZM48.6906 32.2701L48.4759 31.9325H48.4759L48.6906 32.2701ZM28.4 9.56073C28.4 7.85908 29.9434 6.525 31.7908 6.525V5.725C29.5994 5.725 27.6 7.3254 27.6 9.56073H28.4ZM28.4 31.7076V9.56073H27.6V31.7076H28.4ZM28.524 31.9325C28.4463 31.883 28.4 31.7981 28.4 31.7076H27.6C27.6 32.0725 27.7868 32.4115 28.0943 32.6073L28.524 31.9325ZM28.7842 31.95C28.7001 31.9888 28.6019 31.9821 28.524 31.9325L28.0943 32.6073C28.4017 32.803 28.7877 32.8291 29.1187 32.6768L28.7842 31.95ZM38.3449 27.5492L28.7842 31.9501L29.1187 32.6768L38.6794 28.2759L38.3449 27.5492ZM48.2156 31.9499L38.6797 27.5494L38.3445 28.2758L47.8804 32.6763L48.2156 31.9499ZM48.4759 31.9325C48.398 31.9821 48.2997 31.9888 48.2156 31.9499L47.8804 32.6763C48.2113 32.8291 48.5976 32.8032 48.9052 32.6076L48.4759 31.9325ZM48.6 31.7076C48.6 31.7981 48.5537 31.8831 48.4759 31.9325L48.9052 32.6076C49.213 32.4118 49.4 32.0727 49.4 31.7076H48.6ZM48.6 9.56073V31.7076H49.4V9.56073H48.6ZM45.2092 6.525C47.0566 6.525 48.6 7.85908 48.6 9.56073H49.4C49.4 7.32541 47.4006 5.725 45.2092 5.725V6.525ZM31.7908 6.525H45.2092V5.725H31.7908V6.525Z" fill="url(#paint1_linear_6961_60070)" mask="url(#path-4-outside-2_6961_60070)"/>
</g>
<path d="M36.4121 20.1902H41.4117" stroke="white" stroke-width="2.5" stroke-linecap="round" stroke-linejoin="round"/>
<path d="M41.8399 21.4888L39.7381 15H38.1018L36 21.4888" stroke="white" stroke-width="2.5" stroke-linecap="round" stroke-linejoin="round"/>
<defs>
<filter id="filter0_bi_6961_60070" x="3.59961" y="-18.275" width="69.8008" height="75.05" filterUnits="userSpaceOnUse" color-interpolation-filters="sRGB">
<feFlood flood-opacity="0" result="BackgroundImageFix"/>
<feGaussianBlur in="BackgroundImageFix" stdDeviation="12"/>
<feComposite in2="SourceAlpha" operator="in" result="effect1_backgroundBlur_6961_60070"/>
<feBlend mode="normal" in="SourceGraphic" in2="effect1_backgroundBlur_6961_60070" result="shape"/>
<feColorMatrix in="SourceAlpha" type="matrix" values="0 0 0 0 0 0 0 0 0 0 0 0 0 0 0 0 0 0 127 0" result="hardAlpha"/>
<feOffset dy="2"/>
<feGaussianBlur stdDeviation="1"/>
<feComposite in2="hardAlpha" operator="arithmetic" k2="-1" k3="1"/>
<feColorMatrix type="matrix" values="0 0 0 0 1 0 0 0 0 1 0 0 0 0 1 0 0 0 0.4 0"/>
<feBlend mode="normal" in2="shape" result="effect2_innerShadow_6961_60070"/>
</filter>
<linearGradient id="paint0_linear_6961_60070" x1="38.5" y1="6.125" x2="38.5" y2="32.375" gradientUnits="userSpaceOnUse">
<stop stop-color="white"/>
<stop offset="1" stop-color="white" stop-opacity="0.5"/>
</linearGradient>
<linearGradient id="paint1_linear_6961_60070" x1="38.5" y1="6.125" x2="38.5" y2="32.375" gradientUnits="userSpaceOnUse">
<stop stop-color="white"/>
<stop offset="1" stop-color="white" stop-opacity="0.5"/>
</linearGradient>
</defs>
</svg>
