<svg width="56" height="56" viewBox="0 0 56 56" fill="none" xmlns="http://www.w3.org/2000/svg">
<g filter="url(#filter0_bi_6961_60059)">
<rect x="17.9961" y="12.8067" width="29.1971" height="29.1971" rx="8" transform="rotate(-15 17.9961 12.8067)" fill="#308AF2"/>
<rect x="17.9961" y="12.8067" width="29.1971" height="29.1971" rx="8" transform="rotate(-15 17.9961 12.8067)" stroke="url(#paint0_linear_6961_60059)" stroke-width="0.6"/>
</g>
<g filter="url(#filter1_bi_6961_60059)">
<rect x="6.125" y="12.7864" width="35" height="35" rx="8" fill="#C9DBFA" fill-opacity="0.8"/>
<rect x="6.125" y="12.7864" width="35" height="35" rx="8" stroke="url(#paint1_linear_6961_60059)" stroke-width="0.6"/>
</g>
<path d="M21.5833 37.2864H18.1199C17.9555 37.2864 17.7978 37.2211 17.6816 37.1049C17.5653 36.9886 17.5 36.8309 17.5 36.6665V33.2031C17.4997 33.1226 17.5153 33.0428 17.5459 32.9684C17.5765 32.8939 17.6214 32.8262 17.6782 32.7692L26.9761 23.4713C27.0338 23.4128 27.1025 23.3663 27.1783 23.3345C27.2541 23.3028 27.3355 23.2864 27.4177 23.2864C27.4999 23.2864 27.5813 23.3028 27.6571 23.3345C27.7329 23.3663 27.8017 23.4128 27.8594 23.4713L31.3151 26.927C31.3736 26.9847 31.4202 27.0535 31.4519 27.1293C31.4837 27.2051 31.5 27.2865 31.5 27.3687C31.5 27.4509 31.4837 27.5323 31.4519 27.6081C31.4202 27.6839 31.3736 27.7527 31.3151 27.8103L22.0172 37.1082C21.9602 37.165 21.8925 37.2099 21.818 37.2405C21.7436 37.2711 21.6638 37.2867 21.5833 37.2864Z" fill="white"/>
<defs>
<filter id="filter0_bi_6961_60059" x="11.4922" y="-1.25415" width="48.7666" height="48.7672" filterUnits="userSpaceOnUse" color-interpolation-filters="sRGB">
<feFlood flood-opacity="0" result="BackgroundImageFix"/>
<feGaussianBlur in="BackgroundImageFix" stdDeviation="4"/>
<feComposite in2="SourceAlpha" operator="in" result="effect1_backgroundBlur_6961_60059"/>
<feBlend mode="normal" in="SourceGraphic" in2="effect1_backgroundBlur_6961_60059" result="shape"/>
<feColorMatrix in="SourceAlpha" type="matrix" values="0 0 0 0 0 0 0 0 0 0 0 0 0 0 0 0 0 0 127 0" result="hardAlpha"/>
<feOffset dy="2"/>
<feGaussianBlur stdDeviation="1"/>
<feComposite in2="hardAlpha" operator="arithmetic" k2="-1" k3="1"/>
<feColorMatrix type="matrix" values="0 0 0 0 1 0 0 0 0 1 0 0 0 0 1 0 0 0 0.4 0"/>
<feBlend mode="normal" in2="shape" result="effect2_innerShadow_6961_60059"/>
</filter>
<filter id="filter1_bi_6961_60059" x="-10.1748" y="-3.51361" width="67.5996" height="67.6" filterUnits="userSpaceOnUse" color-interpolation-filters="sRGB">
<feFlood flood-opacity="0" result="BackgroundImageFix"/>
<feGaussianBlur in="BackgroundImageFix" stdDeviation="8"/>
<feComposite in2="SourceAlpha" operator="in" result="effect1_backgroundBlur_6961_60059"/>
<feBlend mode="normal" in="SourceGraphic" in2="effect1_backgroundBlur_6961_60059" result="shape"/>
<feColorMatrix in="SourceAlpha" type="matrix" values="0 0 0 0 0 0 0 0 0 0 0 0 0 0 0 0 0 0 127 0" result="hardAlpha"/>
<feOffset dy="2"/>
<feGaussianBlur stdDeviation="1"/>
<feComposite in2="hardAlpha" operator="arithmetic" k2="-1" k3="1"/>
<feColorMatrix type="matrix" values="0 0 0 0 1 0 0 0 0 1 0 0 0 0 1 0 0 0 0.4 0"/>
<feBlend mode="normal" in2="shape" result="effect2_innerShadow_6961_60059"/>
</filter>
<linearGradient id="paint0_linear_6961_60059" x1="32.5946" y1="12.8067" x2="32.5946" y2="42.0038" gradientUnits="userSpaceOnUse">
<stop stop-color="white" stop-opacity="0.5"/>
<stop offset="1" stop-color="white"/>
</linearGradient>
<linearGradient id="paint1_linear_6961_60059" x1="23.625" y1="12.7864" x2="23.625" y2="47.7864" gradientUnits="userSpaceOnUse">
<stop stop-color="white" stop-opacity="0.5"/>
<stop offset="1" stop-color="white"/>
</linearGradient>
</defs>
</svg>
