<svg width="56" height="56" viewBox="0 0 56 56" fill="none" xmlns="http://www.w3.org/2000/svg">
<path d="M6 20.4488C6 18.1299 8.51851 16.6877 10.5184 17.8614L10.9221 18.0983L12.0934 34.4149C12.1956 35.8398 13.1945 37.0411 14.5767 37.4017L23.1301 39.6329C26.327 40.4669 29.6807 40.4959 32.8915 39.7173L44.9291 36.7985L46.2715 17.1861C47.9629 16.2896 50.0004 17.5157 50.0004 19.4299V41.3556C50.0004 42.1133 49.3859 42.7273 48.6282 42.7267C42.2726 42.7215 35.9789 43.9754 30.1104 46.4158L28.3776 47.1363C28.136 47.2368 27.8644 47.2368 27.6228 47.1363L25.89 46.4158C20.0215 43.9754 13.7278 42.7215 7.37219 42.7267C6.61453 42.7273 6 42.1133 6 41.3556V20.4488Z" fill="#2681EE"/>
<g filter="url(#filter0_bi_6961_60121)">
<path d="M27.7766 14.2261C22.2927 11.146 17.3923 9.9207 10.9 9.71083C9.72036 9.67055 8.75 10.6457 8.75 11.8307V36.9575C8.75 38.1043 9.66539 39.0562 10.8091 39.0731C17.3458 39.1706 22.2673 40.379 27.7766 43.6266C33.2859 40.379 38.2074 39.1706 44.7441 39.0731C45.8878 39.0562 46.8032 38.1043 46.8032 36.9575V11.8307C46.8032 10.6457 45.8328 9.67267 44.6532 9.71083C38.1609 9.9207 33.2605 11.146 27.7766 14.2261Z" fill="#C9DBFA" fill-opacity="0.8"/>
</g>
<mask id="mask0_6961_60121" style="mask-type:alpha" maskUnits="userSpaceOnUse" x="10" y="9" width="36" height="31">
<path d="M27.6392 13.7372C22.6286 10.9951 18.0166 9.90323 12.0846 9.7164C11.0067 9.68054 10.1201 9.7164 10.1201 11.6036L10.2547 33.9735C10.2547 34.9945 11.0911 35.8418 12.1361 35.8569C18.1086 35.9437 22.6054 37.0194 27.6392 39.9106C32.673 37.0194 37.1698 35.9437 43.1424 35.8569C44.1874 35.8418 45.0238 34.9945 45.0238 33.9735V11.6046C45.0238 9.71745 44.1372 9.68348 43.0593 9.71745C37.1273 9.90428 32.6498 10.9951 27.6392 13.7372Z" fill="url(#paint0_linear_6961_60121)"/>
</mask>
<g mask="url(#mask0_6961_60121)">
<path d="M27.6392 15.3927C22.6286 12.6507 18.0166 11.5588 12.0846 11.372C11.0067 11.3361 10.1201 11.372 10.1201 13.2592L10.2547 35.6291C10.2547 36.6501 11.0911 37.4974 12.1361 37.5125C18.1086 37.5993 22.6054 38.675 27.6392 41.5662C32.673 38.675 37.1698 37.5993 43.1424 37.5125C44.1874 37.4974 45.0238 36.6501 45.0238 35.6291V13.2602C45.0238 11.373 44.1372 11.3391 43.0593 11.373C37.1273 11.5599 32.6498 12.6507 27.6392 15.3927Z" fill="url(#paint1_linear_6961_60121)" fill-opacity="0.8"/>
</g>
<defs>
<filter id="filter0_bi_6961_60121" x="-7.25" y="-6.29037" width="70.0527" height="65.917" filterUnits="userSpaceOnUse" color-interpolation-filters="sRGB">
<feFlood flood-opacity="0" result="BackgroundImageFix"/>
<feGaussianBlur in="BackgroundImageFix" stdDeviation="8"/>
<feComposite in2="SourceAlpha" operator="in" result="effect1_backgroundBlur_6961_60121"/>
<feBlend mode="normal" in="SourceGraphic" in2="effect1_backgroundBlur_6961_60121" result="shape"/>
<feColorMatrix in="SourceAlpha" type="matrix" values="0 0 0 0 0 0 0 0 0 0 0 0 0 0 0 0 0 0 127 0" result="hardAlpha"/>
<feOffset dy="2"/>
<feGaussianBlur stdDeviation="1"/>
<feComposite in2="hardAlpha" operator="arithmetic" k2="-1" k3="1"/>
<feColorMatrix type="matrix" values="0 0 0 0 1 0 0 0 0 1 0 0 0 0 1 0 0 0 0.4 0"/>
<feBlend mode="normal" in2="shape" result="effect2_innerShadow_6961_60121"/>
</filter>
<linearGradient id="paint0_linear_6961_60121" x1="27.6392" y1="20.2386" x2="27.6392" y2="33.9633" gradientUnits="userSpaceOnUse">
<stop/>
<stop offset="1" stop-opacity="0"/>
</linearGradient>
<linearGradient id="paint1_linear_6961_60121" x1="20.7768" y1="15.0319" x2="34.044" y2="15.0319" gradientUnits="userSpaceOnUse">
<stop offset="0.260417" stop-color="#DCE3F4" stop-opacity="0"/>
<stop offset="0.520833" stop-color="white" stop-opacity="0.8"/>
<stop offset="0.78125" stop-color="#DCE3F4" stop-opacity="0"/>
</linearGradient>
</defs>
</svg>
